<svg width="70" height="70" viewBox="0 0 70 70" fill="none" xmlns="http://www.w3.org/2000/svg">
	<path fill-rule="evenodd" clip-rule="evenodd" d="M28.98 40.09L28.5 30.24L12.05 53.8C11.8067 54.1475 11.4835 54.4315 11.1076 54.6281C10.7318 54.8248 10.3142 54.9283 9.89 54.93H2L28.56 16.01H37.17L37.08 32.18C37.0806 32.6068 36.9846 33.0282 36.7993 33.4126C36.614 33.797 36.3442 34.1346 36.01 34.4L28.98 40.09Z" fill="#fff" />
	<path fill-rule="evenodd" clip-rule="evenodd" d="M29.2199 44.83L29.0699 41.89H37.1799L37.2899 54.7L29.6899 54.61L29.5399 51.35H19.6899L23.0099 46.35C23.3216 45.8901 23.74 45.5125 24.2293 45.2496C24.7187 44.9866 25.2644 44.8461 25.8199 44.84L29.2199 44.83Z" fill="#fff" />
	<path d="M46.4501 33.52H53.6701C58.4301 33.52 60.6201 31.44 60.6201 28.05C60.6201 24.66 57.3901 22.87 53.6701 22.87H46.4501V31.95H38.6001V16H54.9501C59.3901 16 62.7734 17.0967 65.1001 19.29C66.28 20.4456 67.2019 21.8379 67.8051 23.3753C68.4084 24.9127 68.6793 26.5604 68.6001 28.21C68.6397 30.3849 68.1014 32.5313 67.0401 34.43C65.9559 36.2847 64.3441 37.7746 62.4101 38.71C60.0815 39.8118 57.5251 40.3464 54.9501 40.27L46.6101 40.51H30.6101L38.0801 34.21C38.6436 33.7463 39.3503 33.4918 40.0801 33.49L46.4501 33.52ZM46.6101 54.78H38.6101V41.89H46.6101V54.78Z" fill="#fff" />
</svg>
