<svg width="70" height="70" viewBox="0 0 70 70" fill="none" xmlns="http://www.w3.org/2000/svg">
<path fill-rule="evenodd" clip-rule="evenodd" d="M26.5124 17H31.8969L31.3435 17.9222V41.6945L26.7167 41.7423C24.1671 41.7764 18.7231 41.7969 7.14553 41.7901L6.78373 41.5715C6.58367 41.4485 6.26018 41.2026 6.06438 41.0113C5.87284 40.8201 5.56638 40.458 5.38761 40.1916C5.20884 39.9252 4.95345 39.4675 4.81298 39.1669C4.67678 38.8664 4.48949 38.3745 4.39585 38.074C4.30647 37.7734 4.18303 37.2474 4.11492 36.9127C4.00851 36.332 4 36.2227 4 35C4 33.7772 4.00851 33.6679 4.11492 33.0873C4.17877 32.7525 4.31072 32.2129 4.40436 31.8918C4.50226 31.5708 4.67678 31.0857 4.79596 30.8057C4.9194 30.5256 5.17053 30.0679 5.35781 29.781C5.5451 29.4941 5.84305 29.1184 6.01756 28.9408C6.19208 28.7632 6.49854 28.5104 7.0604 28.1347H27.1296V18.093L27.0147 17.8744C26.9551 17.7514 26.8146 17.5055 26.7082 17.3211L26.5124 17ZM10.2868 32.6091C10.1676 32.7389 9.98884 33.0121 9.8952 33.2102C9.80156 33.4083 9.68238 33.7499 9.63556 33.9616C9.57597 34.2281 9.55043 34.5286 9.55043 34.8838C9.54617 35.2186 9.57597 35.5533 9.62704 35.7924C9.66961 35.9973 9.76325 36.3047 9.83561 36.4755C9.90371 36.6394 10.0484 36.899 10.1506 37.0493C10.2527 37.1996 10.4528 37.4045 10.5933 37.507C10.7337 37.6095 10.9423 37.7188 11.0615 37.7461C11.1764 37.7666 14.8412 37.7666 19.1998 37.7461L27.1296 37.7051V32.1036C11.2232 32.1104 11.0104 32.1104 10.7635 32.2402C10.6231 32.3153 10.4102 32.4793 10.2868 32.6091V32.6091Z" fill="#F01E23"/>
<path fill-rule="evenodd" clip-rule="evenodd" d="M63.331 27.9982L63.6289 28.1621C63.7906 28.2509 64.0248 28.3944 64.1397 28.4763C64.2589 28.5583 64.51 28.7906 64.7058 28.9955C64.8973 29.2004 65.1995 29.5898 65.3783 29.8631C65.5613 30.1363 65.821 30.635 65.9742 31.0039C66.1189 31.3591 66.2977 31.8714 66.3701 32.131C66.4382 32.3906 66.5361 32.8687 66.5871 33.1898C66.634 33.5109 66.685 34.0915 66.7021 34.4877C66.7191 34.9249 66.7063 35.4304 66.6765 35.7856C66.6467 36.1067 66.5744 36.6122 66.5148 36.9128C66.4552 37.2133 66.3403 37.671 66.2594 37.9374C66.1743 38.2038 66.0083 38.641 65.8891 38.9211C65.7699 39.2012 65.4975 39.693 65.2847 40.0141C65.0718 40.3351 64.7356 40.7587 64.5398 40.9431C64.344 41.1344 64.029 41.3871 63.5012 41.7287H35.6852L35.7363 51.9412L36.03 52.4194C36.1917 52.6858 36.3109 52.918 36.2982 52.9522C36.2811 52.9795 35.0382 53 33.54 53C32.0374 53 30.7946 52.9795 30.7775 52.9522C30.7605 52.9249 30.8712 52.6995 31.2968 52.0095L31.3649 28.0665L38.2178 28.046C41.9848 28.0392 49.1782 28.0255 63.331 27.9982ZM35.6852 32.0968V37.7667C58.7297 37.7667 59.3214 37.7598 59.5555 37.6437C59.6874 37.5754 59.8832 37.4388 59.9896 37.3431C60.096 37.2475 60.2706 37.0152 60.377 36.8376C60.4834 36.6532 60.6196 36.3458 60.6792 36.1613C60.7388 35.9701 60.8111 35.6353 60.8409 35.4099C60.8792 35.0957 60.8835 34.8976 60.8452 34.556C60.8196 34.3101 60.7473 33.9412 60.6877 33.7363C60.6281 33.5314 60.4749 33.1898 60.3514 32.9849C60.228 32.7799 60.0322 32.5272 59.9215 32.4247C59.8066 32.3223 59.598 32.1925 59.4576 32.1378C59.232 32.0422 58.5509 32.0285 53.3921 32.0422C50.1955 32.0558 44.9047 32.0695 41.6358 32.0763L35.6852 32.0968Z" fill="#00227D"/>
</svg>
