<svg width="70" height="70" viewBox="0 0 70 70" fill="none" xmlns="http://www.w3.org/2000/svg">
	<path fill-rule="evenodd" clip-rule="evenodd" d="M54.377 30.1973C59.7894 30.2084 64.5549 30.2361 64.964 30.2582C65.6662 30.2969 65.738 30.3135 66.2079 30.5237C66.4844 30.6399 66.8548 30.8446 67.0372 30.9663C67.2197 31.088 67.5127 31.3314 67.684 31.5029C67.861 31.6744 68.1153 31.9786 68.2424 32.1889C68.3751 32.3935 68.5465 32.7365 68.6239 32.9467C68.7013 33.1625 68.8008 33.4778 68.8395 33.6604C68.8837 33.8374 68.9335 33.9923 68.9556 34.0033C68.9832 34.0144 68.9998 34.1693 68.9998 34.3463C68.9998 34.5178 68.9556 34.7889 68.9003 34.9383C68.8505 35.0931 68.7897 35.2204 68.7621 35.2314C68.74 35.237 68.74 35.2757 68.7566 35.3144C68.7732 35.3476 68.7345 35.5578 68.6681 35.768C68.5962 35.9838 68.447 36.3157 68.3309 36.5149C68.2203 36.714 67.9549 37.0404 67.7449 37.2396C67.5403 37.4442 67.2584 37.6821 67.1201 37.7762C66.9819 37.8647 66.6944 38.0251 66.4844 38.1191C66.2743 38.2187 65.9702 38.3294 65.821 38.3736C65.5888 38.4345 63.394 38.4511 52.5803 38.4511C45.4485 38.4511 39.5828 38.4732 39.5441 38.4953C39.4888 38.5285 39.4492 39.1491 39.4768 44.2385L40.196 44.9577H34.802L35.3414 44.2385L35.2983 40.3873C35.2761 38.2132 35.2596 35.2646 35.2651 33.8319C35.2651 32.3991 35.2927 31.005 35.3591 30.2361L39.9477 30.2084C42.4687 30.1918 48.9646 30.1863 54.377 30.1973ZM51.5022 32.6812C52.2651 32.6757 51.6294 32.6701 50.0925 32.6701C48.5555 32.6701 47.9364 32.6757 48.7103 32.6812C49.4843 32.6923 50.7448 32.6923 51.5022 32.6812ZM39.5884 35.934L62.0616 35.9285C62.3601 35.7515 62.5813 35.5578 62.7416 35.3863C62.9296 35.1817 63.0512 34.9991 63.0899 34.8442C63.1231 34.7114 63.1396 34.4182 63.1286 34.1914C63.112 33.937 63.0622 33.6991 63.0014 33.5829C62.9461 33.4778 62.7858 33.2842 62.6476 33.1514C62.5094 33.0187 62.2938 32.8748 62.1722 32.8361C61.9842 32.7697 60.1653 32.7531 50.7669 32.7421L39.5884 32.7255V35.934ZM41.6062 38.9655C42.1812 38.9821 42.3028 38.9987 42.5406 39.1149C42.7285 39.2145 42.8391 39.314 42.911 39.4634C42.9718 39.5796 43.016 39.7843 43.016 39.9447C43.016 40.1107 42.9718 40.3098 42.9054 40.4426C42.8225 40.6085 42.7285 40.697 42.5295 40.7856C42.3692 40.8575 42.1038 40.9183 41.4128 40.9681V41.5102C41.4128 41.9251 41.3906 42.0634 41.3243 42.1298C41.2801 42.1741 41.1861 42.2128 41.1197 42.2128C41.0534 42.2128 40.9649 42.1907 40.9262 42.1686C40.882 42.1464 40.8544 42.1132 40.8544 42.0911C40.8599 42.0634 40.8599 42.0247 40.8599 41.9915C40.8599 41.9639 40.8323 41.9473 40.8046 41.9639C40.7659 41.9805 40.7493 41.56 40.7493 40.7468C40.7493 39.8175 40.7659 39.5132 40.8157 39.5464C40.8599 39.5741 40.8654 39.5077 40.8433 39.2919C40.8157 39.0872 40.8267 38.9987 40.8765 38.9766C40.9097 38.9655 41.2414 38.96 41.6062 38.9655ZM41.4183 40.0055L41.4404 40.3043C41.9988 40.3264 42.1425 40.3043 42.2254 40.249C42.2973 40.2047 42.3526 40.1273 42.3526 40.083C42.3526 40.0387 42.3747 40.0111 42.4079 40.0277C42.4355 40.0443 42.4632 40.0166 42.4632 39.9724C42.4632 39.9281 42.4355 39.8894 42.4079 39.8894C42.3747 39.8894 42.3526 39.8507 42.3526 39.8064C42.3526 39.7621 42.2752 39.6847 42.1867 39.6404C42.0928 39.5962 41.8937 39.5575 41.7445 39.5575C41.562 39.5575 41.4515 39.5851 41.4293 39.6349C41.4128 39.6736 41.4072 39.8451 41.4183 40.0055ZM44.2986 38.9766C44.4147 38.9932 44.5529 39.0485 44.6027 39.0983C44.658 39.1481 44.7575 39.3804 44.8238 39.6072C44.8846 39.8396 45.0284 40.3264 45.1334 40.6915C45.244 41.0566 45.3214 41.3719 45.3048 41.3996C45.2937 41.4217 45.2993 41.4383 45.3214 41.4383C45.349 41.4383 45.4098 41.5822 45.4651 41.7537C45.5646 42.0634 45.5646 42.0745 45.4651 42.1464C45.4098 42.1851 45.3103 42.2128 45.2385 42.2128C45.1721 42.2128 45.056 42.152 44.9786 42.0745C44.9012 41.9971 44.8238 41.8809 44.8072 41.8145C44.7851 41.7426 44.7851 41.6541 44.8072 41.6209C44.8293 41.5766 44.7907 41.5379 44.7133 41.5213C44.6469 41.5047 44.3926 41.4936 43.7181 41.5213L43.6352 41.7702C43.5854 41.9085 43.5191 42.0524 43.4749 42.0911C43.4362 42.1243 43.3367 42.1741 43.2482 42.1907C43.1653 42.2073 43.0547 42.1907 42.9994 42.1464C42.911 42.08 42.9165 42.0413 43.0934 41.466C43.1985 41.1341 43.3698 40.5698 43.4804 40.2213C43.5854 39.8728 43.6905 39.4966 43.7071 39.3915C43.7292 39.2864 43.79 39.1592 43.8398 39.1094C43.8895 39.0596 43.9669 39.0043 44.0111 38.9877C44.0554 38.9655 44.188 38.9655 44.2986 38.9766ZM44.0333 40.3043C44.0222 40.3651 44.0001 40.52 43.9835 40.6528L43.9558 40.8851C44.4424 40.8851 44.5087 40.863 44.5087 40.8022C44.5087 40.7579 44.4589 40.5477 44.3981 40.3319C44.3373 40.1162 44.2654 39.9336 44.2378 39.917C44.2102 39.906 44.1604 39.9613 44.1217 40.0443C44.083 40.1273 44.0443 40.2434 44.0333 40.3043ZM46.1341 38.9489C46.2281 38.9489 46.3441 38.9766 46.3884 39.0043C46.4326 39.0319 46.4437 39.0596 46.416 39.0596C46.3828 39.0596 46.3994 39.0872 46.4437 39.1149C46.5155 39.1592 46.5155 39.2366 46.4658 39.7068C46.4271 40.0055 46.416 40.2711 46.4381 40.2932C46.4547 40.3209 46.5708 40.2158 46.6924 40.0664C46.8141 39.917 47.0186 39.6294 47.1513 39.4302C47.284 39.2255 47.4498 39.0375 47.5272 39.0043C47.5991 38.9766 47.7594 38.9489 47.8811 38.9489C48.0285 38.9489 48.1114 38.9766 48.1298 39.0319C48.1464 39.0817 48.0193 39.2864 47.8368 39.5187C47.6599 39.7345 47.483 39.9724 47.4498 40.0443C47.4111 40.1107 47.4001 40.2213 47.4222 40.2932C47.4388 40.3596 47.6544 40.7911 47.8921 41.2447C48.1298 41.7039 48.3233 42.0911 48.3233 42.1188C48.3233 42.1409 48.2349 42.1686 48.1298 42.1851C48.0082 42.2017 47.8645 42.1796 47.7373 42.1188C47.5715 42.0358 47.4941 41.9196 47.2342 41.4107C47.0684 41.0788 46.9191 40.7966 46.9081 40.7911C46.897 40.78 46.8307 40.8132 46.7588 40.8575C46.6924 40.9017 46.6537 40.9405 46.6759 40.9405C46.7035 40.9405 46.6703 41.0068 46.6095 41.0953C46.5155 41.2115 46.4934 41.3277 46.4989 41.6485C46.4989 41.8975 46.4768 42.0358 46.4437 42.0192C46.4105 42.0026 46.3884 42.0303 46.3884 42.0745C46.3884 42.1188 46.3442 42.1686 46.2889 42.1851C46.2391 42.2017 46.1175 42.1907 45.8632 42.1243L45.8411 40.6141C45.8189 39.4247 45.83 39.0872 45.8853 39.0264C45.924 38.9821 46.0346 38.9489 46.1341 38.9489ZM49.6778 38.9489C49.8105 38.9489 49.9432 38.9821 50.0151 39.043C50.0925 39.1094 50.2307 39.4855 50.4463 40.2213C50.6232 40.8132 50.8167 41.4494 50.8775 41.6319C50.9604 41.8864 50.9715 41.9915 50.9273 42.0911C50.8775 42.1907 50.8333 42.2073 50.7006 42.1851C50.6066 42.1686 50.4905 42.1132 50.4352 42.0634C50.3855 42.0081 50.3025 41.8643 50.1699 41.5213L49.1526 41.4936L49.0973 41.7426C49.0642 41.8809 49.0144 41.9915 48.9868 41.9915C48.9536 41.9915 48.9425 42.0137 48.9591 42.0468C48.9757 42.08 48.9481 42.1132 48.9038 42.1298C48.8596 42.1464 48.7214 42.1575 48.5998 42.1575C48.4173 42.1575 48.3786 42.1409 48.3786 42.0468C48.3786 41.986 48.4118 41.8698 48.456 41.7868C48.4947 41.6983 48.5942 41.4051 48.6716 41.1341C48.749 40.863 48.8872 40.3651 48.9812 40.0277C49.0752 39.6958 49.1858 39.3417 49.219 39.2532C49.2521 39.1647 49.3185 39.054 49.3682 39.0209C49.4125 38.9821 49.5562 38.9489 49.6778 38.9489ZM49.6115 39.9502C49.5728 40.0553 49.5009 40.2877 49.4567 40.4702C49.4125 40.6528 49.3903 40.8243 49.4125 40.8464C49.4401 40.8685 49.5672 40.8796 49.7055 40.8741C49.9487 40.8575 49.9542 40.8519 49.9377 40.6915C49.9266 40.603 49.8603 40.3541 49.7994 40.1438L49.6778 39.7621L49.6115 39.9502ZM51.8947 38.9489C52.7738 38.9489 52.9838 38.9655 53.0502 39.0319C53.0999 39.0762 53.1331 39.1868 53.1331 39.2698C53.1331 39.3528 53.111 39.4579 53.0778 39.5021C53.0447 39.563 52.9286 39.5851 52.3315 39.5851L52.3038 42.1022L52.1546 42.163C52.0716 42.1907 51.9169 42.2017 51.8063 42.1851C51.7012 42.1686 51.6017 42.1409 51.5851 42.1243C51.5741 42.1077 51.5464 41.5324 51.5022 39.5851L50.789 39.5298L50.7448 39.3251C50.7172 39.1923 50.7227 39.0872 50.7614 39.0319C50.8167 38.9655 51.0102 38.9489 51.8947 38.9489ZM53.6804 38.9489C53.8684 38.9489 53.9734 38.9821 54.084 39.0706C54.1614 39.1426 54.4268 39.5464 54.6756 39.9724C54.9188 40.3983 55.1234 40.7745 55.1234 40.8022C55.1234 40.8353 55.1731 40.9073 55.35 41.0788L55.3445 40.5256C55.339 40.1604 55.3224 40.0221 55.2892 40.1107C55.256 40.2268 55.245 40.2158 55.2395 40.0166C55.2395 39.8838 55.2616 39.7787 55.2892 39.7787C55.3224 39.7787 55.3334 39.7124 55.3224 39.6294C55.3058 39.5464 55.2782 39.386 55.2616 39.2809C55.2395 39.1592 55.256 39.0651 55.3003 39.0153C55.339 38.9766 55.4606 38.9434 55.5656 38.9489C55.6762 38.9489 55.7923 38.9821 55.831 39.0209C55.8863 39.0706 55.9029 39.4524 55.8973 40.5975C55.8973 42.0468 55.8973 42.1077 55.7868 42.1575C55.726 42.1907 55.6209 42.2128 55.5546 42.2128C55.4827 42.2128 55.3721 42.1686 55.3058 42.1188C55.2395 42.0634 55.0183 41.7481 54.8138 41.4107C54.6092 41.0788 54.3549 40.6362 54.2443 40.426C54.1338 40.2213 54.0287 40.0719 54.0066 40.0941C53.979 40.1217 53.9624 40.52 53.9624 40.9847C53.9624 41.5102 53.9845 41.8311 54.0232 41.8422C54.0564 41.8477 54.0508 41.9086 54.0066 42.0081C53.9458 42.1298 53.9016 42.1575 53.7302 42.1575C53.5809 42.1575 53.5146 42.1298 53.4869 42.0634C53.4703 42.0081 53.4372 41.3166 53.4151 40.5256C53.3985 39.7345 53.3874 39.0596 53.3985 39.0209C53.4151 38.9766 53.5201 38.9489 53.6804 38.9489ZM57.5006 38.9489C57.6112 38.9489 57.7439 38.9877 57.8102 39.043C57.8876 39.1094 58.0092 39.4136 58.1585 39.917C58.2856 40.343 58.4294 40.8132 58.4736 40.957C58.5178 41.1009 58.54 41.2447 58.5234 41.2724C58.5123 41.3056 58.5234 41.3277 58.551 41.3277C58.5842 41.3277 58.5952 41.3664 58.5787 41.4107C58.5676 41.4549 58.5731 41.4992 58.5952 41.5102C58.6174 41.5158 58.6782 41.6485 58.7279 41.7979C58.7777 41.9528 58.8164 42.0856 58.8053 42.1022C58.7943 42.1188 58.6947 42.152 58.5897 42.1741C58.4791 42.1962 58.3409 42.1907 58.2912 42.163C58.2359 42.1354 58.1474 41.9749 57.9982 41.4936H57.003L56.9478 41.6596C56.9201 41.7537 56.8704 41.8256 56.8372 41.8256C56.8095 41.8256 56.7985 41.8643 56.8095 41.9085C56.8261 41.9528 56.7985 42.0358 56.7543 42.0856C56.7045 42.1354 56.5718 42.1741 56.4557 42.1796C56.3341 42.1851 56.218 42.1686 56.1959 42.1409C56.1682 42.1188 56.218 41.8809 56.3009 41.6154C56.3839 41.3498 56.5331 40.8851 56.6271 40.5809C56.7211 40.2766 56.8538 39.8175 56.9201 39.5575C57.0196 39.1868 57.0749 39.0762 57.1744 39.0209C57.2518 38.9821 57.3956 38.9489 57.5006 38.9489ZM57.2905 40.3873C57.2297 40.6141 57.191 40.8243 57.2021 40.8464C57.2187 40.8685 57.3513 40.8851 57.5006 40.8851C57.6886 40.8851 57.777 40.863 57.777 40.8187C57.777 40.78 57.7217 40.5587 57.6499 40.3264C57.5835 40.0941 57.5172 39.8838 57.5006 39.8617C57.484 39.8396 57.4508 39.8562 57.4343 39.8949C57.4121 39.9392 57.3458 40.1604 57.2905 40.3873ZM59.5848 38.96C59.7728 38.9711 59.9552 39.0043 59.9884 39.0319C60.0216 39.0651 60.1432 39.4247 60.2648 39.8341C60.3809 40.2434 60.4694 40.603 60.4583 40.6251C60.4417 40.6473 60.4583 40.6749 60.486 40.6915C60.5191 40.7081 60.5302 40.78 60.5136 40.8575C60.497 40.9515 60.5136 40.9902 60.5523 40.9847C60.591 40.9736 60.6518 40.946 60.685 40.9128C60.7237 40.8851 60.7458 40.8464 60.7348 40.8298C60.7237 40.8132 60.79 40.5421 60.884 40.2213C60.9725 39.9004 61.0665 39.5519 61.0886 39.4468C61.1107 39.3417 61.1605 39.2034 61.1936 39.1426C61.2323 39.0817 61.26 39.0596 61.26 39.0872C61.26 39.1204 61.2876 39.1038 61.3152 39.0596C61.3484 39.0098 61.4811 38.9711 61.6912 38.96C61.951 38.9434 62.0229 38.9545 62.0782 39.043C62.1279 39.1204 62.15 39.5077 62.1445 40.5809C62.1445 41.3885 62.1224 42.0579 62.0948 42.1022C62.0616 42.152 61.9565 42.1851 61.8239 42.1851C61.7022 42.1851 61.5806 42.1686 61.5585 42.1409C61.5309 42.1132 61.4977 41.6541 61.4811 41.1175C61.459 40.249 61.4479 40.166 61.3871 40.3596C61.354 40.4813 61.3097 40.6528 61.2931 40.7358C61.2765 40.8187 61.2378 40.8741 61.2047 40.8575C61.177 40.8409 61.166 40.863 61.1826 40.9017C61.1991 40.9405 61.1605 41.123 61.0996 41.3166C61.0388 41.5047 60.9725 41.7426 60.9614 41.8422C60.9504 41.9417 60.8951 42.0524 60.8398 42.0911C60.7845 42.1298 60.6739 42.1575 60.5965 42.1575C60.5247 42.1575 60.4252 42.1354 60.3754 42.1077C60.3257 42.0745 60.3091 42.0247 60.3367 41.9694C60.3588 41.9196 60.3533 41.8809 60.3201 41.8809C60.2925 41.8809 60.2151 41.6873 60.1543 41.4549C60.0935 41.2171 59.9884 40.8464 59.9221 40.6307C59.8502 40.4149 59.7728 40.2158 59.7452 40.1881C59.7175 40.1604 59.712 40.2213 59.7286 40.3319C59.7452 40.437 59.7452 40.8851 59.6843 42.1243L59.5019 42.1575C59.3858 42.1741 59.2808 42.1575 59.2144 42.1022C59.1149 42.0247 59.1094 41.9141 59.0983 40.5532C59.0873 39.3251 59.0983 39.0706 59.1647 39.0098C59.2144 38.9655 59.3637 38.9489 59.5848 38.96ZM62.9848 38.9489C63.1009 38.9489 63.2336 38.9877 63.2779 39.0319C63.3276 39.0762 63.3774 39.0983 63.3995 39.0762C63.4161 39.054 63.4216 39.3417 63.4105 39.7234C63.405 40.1051 63.3995 40.6362 63.405 40.9017C63.4161 41.3 63.4382 41.4051 63.5266 41.4936C63.6096 41.5766 63.7146 41.6043 63.9302 41.6098C64.1348 41.6098 64.2564 41.5766 64.4941 41.3941V40.2268C64.4941 39.2477 64.5107 39.0485 64.577 39.0043C64.6268 38.9766 64.7484 38.9489 64.8535 38.9489C64.964 38.9489 65.0801 38.9821 65.1188 39.0209C65.1686 39.0706 65.1907 39.3583 65.1852 40.0996C65.1852 40.8685 65.1631 41.1839 65.0967 41.4273C65.047 41.5988 64.9419 41.809 64.859 41.8864C64.7816 41.9694 64.5715 42.0745 64.3835 42.1298C64.179 42.1907 63.9468 42.2183 63.7754 42.2017C63.6261 42.1907 63.3995 42.1298 63.2834 42.069C63.1618 42.0137 63.007 41.8754 62.9351 41.7702C62.8632 41.6651 62.7858 41.4605 62.7527 41.3166C62.725 41.1728 62.6974 40.5975 62.6918 40.0387C62.6863 39.48 62.7029 39.0098 62.725 38.9877C62.7527 38.9655 62.8687 38.9489 62.9848 38.9489Z" fill="#FFF" />
	<path fill-rule="evenodd" clip-rule="evenodd" d="M30.1627 25.0194L30.5663 25.1521C30.7819 25.224 31.1468 25.3734 31.3624 25.484C31.5835 25.5947 31.9152 25.7883 32.0977 25.91C32.2801 26.0372 32.6671 26.3747 32.9601 26.6624C33.2697 26.9666 33.6235 27.3926 33.8004 27.6636C33.9663 27.9237 34.1819 28.2943 34.2703 28.4934C34.3643 28.6926 34.4307 28.8696 34.4141 28.8917C34.403 28.9194 32.9048 28.936 31.0915 28.936C27.99 28.9415 27.7799 28.936 27.697 28.842C27.6472 28.7866 27.5367 28.593 27.4482 28.4105C27.3598 28.2279 27.1663 27.9513 27.0115 27.7964C26.8567 27.6415 26.5747 27.4368 26.0163 27.1658L18.857 27.1602C14.0527 27.1602 11.6313 27.1824 11.5041 27.2211C11.3991 27.2488 11.1337 27.3428 10.9236 27.4258C10.7135 27.5088 10.3873 27.6636 10.2049 27.7688C10.0225 27.8739 9.71287 28.0896 9.51938 28.239C9.32588 28.3939 9.03287 28.6705 8.87807 28.853C8.72328 29.0356 8.51872 29.2956 8.42474 29.4339C8.33075 29.5722 8.1649 29.8598 8.05986 30.0701C7.94929 30.2803 7.81108 30.6675 7.75026 30.9275C7.67287 31.2484 7.63417 31.5858 7.63417 32.0063C7.63417 32.4765 7.66181 32.7143 7.76132 33.0573C7.82766 33.3007 7.97693 33.6603 8.0875 33.8595C8.19254 34.0586 8.48002 34.4293 8.71775 34.6837C8.961 34.9382 9.30376 35.248 9.4862 35.3697C9.66864 35.4969 9.99482 35.674 10.2049 35.7735C10.415 35.8731 10.8075 36.0225 11.5594 36.2382H27.9513L28.3383 36.0501C28.5539 35.9506 28.8746 35.7293 29.0515 35.5688C29.2339 35.4029 29.4716 35.1318 29.5822 34.9659C29.6928 34.7999 29.8365 34.5233 29.9028 34.3573C29.9637 34.1914 30.0411 33.9203 30.0742 33.7599C30.1074 33.605 30.135 33.4003 30.135 33.1403H28.9188C27.708 33.1403 27.7025 33.1403 27.6583 33.0131C27.6306 32.9467 27.6251 32.4875 27.6749 31.099L27.8407 31.0713C27.9292 31.0492 29.4108 31.0382 31.1302 31.0382C33.8225 31.0382 34.2703 31.0492 34.3809 31.1211C34.497 31.2041 34.5025 31.2428 34.5357 32.4046C34.5578 33.0684 34.5634 34.2301 34.5523 34.9935C34.5468 35.7514 34.5357 36.6642 34.5357 37.0127C34.5357 37.5825 34.685 37.9808 34.685 37.9808L34.7624 38.3846H30.0826C30.0826 38.3404 30.218 37.8702 30.218 37.8702C30.3396 37.505 30.3507 37.4055 30.2733 36.6255L29.8863 37.0016C29.6707 37.2118 29.3998 37.4553 29.2781 37.5493C29.1565 37.6433 28.869 37.8148 28.6424 37.931C28.4157 38.0527 28.1393 38.1799 28.0342 38.2242C27.9292 38.2685 27.7136 38.3348 27.5643 38.3791C27.3432 38.4344 25.2921 38.451 16.8391 38.451C7.55677 38.451 6.35156 38.4399 6.05855 38.3625C5.87611 38.3127 5.51676 38.2021 5.25692 38.1136C4.99709 38.0195 4.53822 37.8204 4.23416 37.671C3.93009 37.5161 3.5044 37.2561 3.29432 37.0957C3.07871 36.9352 2.73041 36.6199 2.5148 36.3931C2.29919 36.1718 2.01171 35.8123 1.8735 35.602C1.73529 35.3918 1.55838 35.0876 1.48098 34.9382C1.40358 34.7833 1.26537 34.4348 1 33.6658V32.2275C1 31.4365 1.01106 30.7782 1.02764 30.7616C1.0387 30.745 1.14927 30.4628 1.26537 30.1254C1.38699 29.7879 1.57496 29.3288 1.69106 29.102C1.80163 28.8752 2.03935 28.4768 2.21074 28.2168C2.38212 27.9568 2.747 27.5088 3.02342 27.2211C3.30537 26.9334 3.63708 26.6236 3.76424 26.5296C3.89139 26.4355 4.06277 26.3083 4.14017 26.2419C4.2231 26.1811 4.54928 25.9875 4.86993 25.8215C5.19058 25.6555 5.72131 25.4287 6.05855 25.3236C6.39026 25.2185 6.73855 25.1079 6.83254 25.0857C6.92652 25.0636 10.4205 25.0304 14.6 25.0138C18.7796 24.9972 23.9929 24.9917 30.1627 25.0194ZM11.67 39.5408C11.7805 39.5574 11.9685 39.6183 12.1012 39.6736C12.2449 39.74 12.3997 39.8727 12.5048 40.0166C12.5932 40.1438 12.6706 40.271 12.6706 40.2932C12.6651 40.3153 12.5821 40.3706 12.4716 40.4149C12.361 40.4647 12.2283 40.4812 12.1565 40.4646C12.0846 40.4425 11.9795 40.3595 11.9132 40.2821C11.8524 40.2046 11.7252 40.1217 11.6368 40.1051C11.5428 40.0829 11.4046 40.0995 11.2995 40.1438C11.1724 40.1991 11.0839 40.2987 11.001 40.4868C10.9181 40.6749 10.8849 40.863 10.8794 41.1617C10.8794 41.4549 10.9125 41.6485 10.9844 41.82C11.0508 41.9693 11.1503 42.0911 11.2443 42.1408C11.3272 42.1796 11.4599 42.2128 11.5373 42.2128C11.6313 42.2128 11.7529 42.1464 11.869 42.0191C11.974 41.914 12.0569 41.7868 12.0569 41.7425C12.0569 41.6817 11.9961 41.6596 11.8247 41.6596C11.6921 41.6651 11.5594 41.6319 11.5207 41.5932C11.482 41.5545 11.4488 41.4438 11.4488 41.3442C11.4488 41.2059 11.482 41.1506 11.576 41.1174C11.6423 41.0898 11.8966 41.0621 12.1399 41.0621C12.4329 41.0566 12.6098 41.0732 12.654 41.123C12.7093 41.1727 12.7259 41.3996 12.7259 41.9528C12.7204 42.5779 12.7093 42.7162 12.6374 42.7383C12.5932 42.7549 12.5213 42.766 12.4716 42.766C12.4274 42.766 12.3389 42.7162 12.2781 42.6553C12.173 42.5502 12.162 42.5502 12.0182 42.6387C11.9353 42.694 11.7142 42.7438 11.5317 42.7604C11.2719 42.777 11.1447 42.7604 10.9512 42.6719C10.813 42.6055 10.6361 42.4617 10.5532 42.34C10.4703 42.2238 10.3652 42.0081 10.3155 41.8532C10.2712 41.7038 10.2325 41.3885 10.2325 41.1617C10.2325 40.9349 10.2712 40.6085 10.321 40.4425C10.3708 40.2655 10.4813 40.0608 10.5864 39.9557C10.6804 39.8561 10.8075 39.7455 10.8683 39.7123C10.9291 39.6791 11.095 39.6183 11.2277 39.5795C11.3659 39.5463 11.5649 39.5242 11.67 39.5408ZM22.9757 39.5076C23.0088 39.5076 23.1471 39.5297 23.2797 39.5629C23.418 39.5961 23.628 39.6846 23.7441 39.7676C23.8823 39.8617 24.015 40.0332 24.1201 40.2378C24.2638 40.531 24.2749 40.6029 24.2749 41.1617C24.2749 41.7259 24.2638 41.7923 24.109 42.1021C24.004 42.3234 23.8713 42.4838 23.7386 42.5723C23.6225 42.6498 23.4069 42.7272 23.2521 42.7494C23.1028 42.766 22.8651 42.766 22.7269 42.7494C22.5666 42.7272 22.3841 42.6443 22.2183 42.517C21.9971 42.3566 21.9308 42.2625 21.8147 41.9528C21.7207 41.6928 21.6765 41.4659 21.6765 41.2059C21.6765 41.0013 21.7207 40.6859 21.7705 40.5144C21.8202 40.3374 21.9032 40.1327 21.9529 40.0553C22.0027 39.9778 22.1298 39.8561 22.2349 39.7842C22.3399 39.7068 22.5389 39.6183 22.6716 39.5795C22.8098 39.5408 22.948 39.5132 22.9757 39.5076ZM22.3841 40.7744C22.351 40.9736 22.3399 41.2723 22.362 41.4383C22.3841 41.6042 22.4505 41.8255 22.5113 41.9251C22.5832 42.0413 22.6882 42.1242 22.8264 42.163C22.9867 42.2128 23.0752 42.2072 23.2245 42.1464C23.3571 42.0911 23.4511 41.997 23.523 41.8532C23.5838 41.7315 23.6391 41.4936 23.6557 41.3276C23.6723 41.1561 23.6501 40.8906 23.6059 40.7191C23.5617 40.531 23.4732 40.3595 23.3793 40.2655C23.2632 40.1493 23.1747 40.1106 23.0033 40.1106C22.843 40.1106 22.7435 40.1493 22.6163 40.2655C22.4781 40.3872 22.4339 40.4868 22.3841 40.7744ZM14.0693 39.5685C14.7935 39.5851 14.8709 39.5961 15.0976 39.7289C15.2413 39.8119 15.374 39.9446 15.4127 40.0332C15.4514 40.1217 15.4957 40.2821 15.5178 40.3872C15.5344 40.4923 15.5233 40.6859 15.4901 40.8187C15.4514 40.9791 15.3685 41.1008 15.2358 41.2059C15.1252 41.2889 15.0423 41.383 15.0423 41.4106C15.0423 41.4438 15.1805 41.737 15.3464 42.0634C15.5178 42.3898 15.6394 42.683 15.6228 42.7106C15.6118 42.7438 15.4791 42.766 15.3353 42.7715C15.1529 42.7715 15.0423 42.7438 14.9815 42.6719C14.9317 42.6166 14.777 42.3289 14.3789 41.4936H14.1578C14.0251 41.4936 13.9366 41.5213 13.9311 41.5655C13.9256 41.6042 13.9311 41.8587 13.9311 42.1298C13.9422 42.4728 13.92 42.6498 13.8703 42.6996C13.8316 42.7383 13.6934 42.7715 13.5662 42.7715C13.4335 42.766 13.3119 42.7383 13.2898 42.6996C13.2732 42.6608 13.2566 41.9583 13.2622 41.134C13.2677 40.3153 13.2732 39.6183 13.2787 39.5961C13.2843 39.5685 13.6381 39.5574 14.0693 39.5685ZM13.8813 40.5532C13.8813 40.7081 13.9035 40.8408 13.9256 40.8574C13.9477 40.8685 14.1191 40.8906 14.3126 40.8961C14.5945 40.9127 14.6719 40.8961 14.7604 40.8021C14.8212 40.7412 14.882 40.6361 14.8986 40.5698C14.9207 40.4812 14.893 40.3983 14.7991 40.2932C14.683 40.1604 14.6166 40.1383 14.3126 40.1217C14.0306 40.1051 13.9532 40.1161 13.92 40.1881C13.8979 40.2378 13.8813 40.4038 13.8813 40.5532ZM16.4023 39.5574C16.5848 39.5574 16.7174 39.5851 16.7396 39.6293C16.7617 39.668 16.7727 40.1438 16.7617 40.6915C16.7506 41.3221 16.7672 41.7647 16.8059 41.8974C16.8612 42.0745 16.8999 42.1132 17.1044 42.1685C17.2592 42.2128 17.4011 42.2164 17.5301 42.1796C17.6628 42.1464 17.7513 42.08 17.801 41.9638C17.8618 41.8421 17.884 41.5268 17.8895 39.5851L18.1659 39.5685C18.3207 39.5629 18.4644 39.574 18.4866 39.5961C18.5142 39.6238 18.5308 40.1383 18.5253 40.7468C18.5253 41.3608 18.4976 41.9528 18.4644 42.0745C18.4313 42.1962 18.3262 42.3732 18.2322 42.4728C18.1327 42.5668 17.9503 42.6719 17.8066 42.7106C17.6739 42.7438 17.4361 42.7715 17.2813 42.766C17.1321 42.7604 16.9109 42.7328 16.8004 42.7051C16.6843 42.6774 16.5737 42.6221 16.5516 42.5779C16.5295 42.5336 16.4852 42.5004 16.4521 42.506C16.4244 42.506 16.336 42.3898 16.2586 42.2349C16.1314 41.9804 16.1204 41.903 16.0927 40.8574C16.0817 40.2489 16.0761 39.7068 16.0872 39.657C16.1038 39.5795 16.1646 39.5574 16.4023 39.5574ZM19.1444 39.5519L19.924 39.5685C20.5763 39.5851 20.7477 39.6072 20.9301 39.6957C21.0462 39.7566 21.1955 39.8783 21.2618 39.9612C21.3503 40.0885 21.3724 40.2046 21.3724 40.5255C21.3724 40.8519 21.3503 40.9681 21.2618 41.0898C21.1955 41.1783 21.0462 41.2944 20.9301 41.3553C20.7975 41.4217 20.5597 41.4715 20.322 41.4881C20.1119 41.4991 19.9018 41.5379 19.8576 41.571C19.8023 41.6208 19.7913 41.737 19.8189 42.1021C19.841 42.4396 19.8355 42.6 19.7857 42.6719C19.7305 42.7494 19.6531 42.7715 19.161 42.7383L19.1444 39.5519ZM19.8079 40.5642L19.83 40.863C20.2446 40.9017 20.4436 40.8906 20.5431 40.863C20.7035 40.8076 20.7145 40.791 20.7145 40.531C20.7145 40.2932 20.6979 40.2489 20.5763 40.1881C20.4989 40.1493 20.3054 40.1161 20.1451 40.1161C19.9534 40.1161 19.8447 40.1401 19.8189 40.1881C19.8023 40.2323 19.7968 40.3983 19.8079 40.5642Z" fill="#FFF" />
</svg>
