<svg width="300" height="100" viewBox="0 0 300 100" fill="none" xmlns="http://www.w3.org/2000/svg">
<path d="M47.1896 10.0659C46.8757 10.0988 46.281 10.0988 45.868 10.0659C45.455 10.0329 45.7193 10 46.4462 10C47.1731 10 47.5035 10.0329 47.1896 10.0659Z" fill="white"/>
<path d="M84.7732 11.0045C85.2193 10.7904 86.0783 10.5105 86.6731 10.3788C87.2678 10.247 88.0773 10.1482 88.4903 10.1317C88.9033 10.1153 89.7954 10.247 90.4727 10.4282C91.1501 10.5928 92.0917 10.9222 92.5378 11.1527C93.0003 11.3668 93.7603 11.8608 94.2394 12.2396C94.7019 12.6019 95.4288 13.3758 95.8253 13.9522C96.2218 14.5121 96.7174 15.3025 96.9156 15.7142C97.1304 16.1259 97.5269 17.1963 97.8243 18.102C98.1381 19.0077 99.0137 22.9434 99.8067 26.8298C100.6 30.7161 101.607 35.5081 102.07 37.4513C102.516 39.3945 103.259 42.6221 103.705 44.6147C104.152 46.6072 104.68 48.9127 104.862 49.7196C105.044 50.543 105.258 51.4981 105.341 51.8604C105.424 52.2226 105.688 53.4412 105.936 54.5775C106.167 55.7138 106.696 58.0851 107.092 59.8471C107.505 61.6091 108.282 64.8038 108.827 66.9281C109.372 69.0524 110.181 72.0495 110.627 73.5975C111.074 75.1454 111.999 78.1425 112.709 80.2668C113.865 83.7908 113.981 84.2684 113.998 85.5364C114.014 86.6726 113.948 87.0349 113.684 87.4796C113.502 87.776 112.957 88.2865 112.494 88.5993C111.916 88.9616 111.107 89.2745 110.181 89.5051C108.81 89.8344 108.166 89.8509 99.0633 89.9167C93.7437 89.9497 88.3747 89.9167 87.1191 89.8509C85.8801 89.785 84.8558 89.6862 84.8558 89.6203C84.8558 89.538 85.2523 88.9452 85.7479 88.3029C86.2435 87.6442 86.8713 86.6232 87.1522 86.0304C87.433 85.4376 87.6643 84.8612 87.6643 84.7624C87.6643 84.6471 87.7138 84.5813 87.7799 84.6142C87.8625 84.6471 87.9121 83.445 87.9121 79.1799L87.2182 77.7802C86.8383 77.0227 86.1279 75.9194 85.6323 75.3265C85.1367 74.7337 84.2611 73.8774 83.6829 73.4163C83.1047 72.9552 82.1135 72.2307 81.4692 71.819C80.8249 71.4237 79.5694 70.6827 78.6607 70.1887C77.7521 69.6947 75.1584 68.3279 72.8786 67.1751C70.6154 66.0224 68.0878 64.705 67.2617 64.2604C66.4357 63.7993 64.9654 62.8936 63.9577 62.2349C62.9499 61.5927 61.4796 60.4235 60.6867 59.666C59.6789 58.7108 59.0842 58.0027 58.7868 57.377C58.4234 56.6195 58.3408 56.2407 58.3408 55.1539C58.3408 53.9682 58.4069 53.7047 58.9851 52.5191C59.4807 51.4651 59.8937 50.9217 61.0501 49.7855C61.9257 48.9292 63.1978 47.9082 64.3707 47.1507C65.4115 46.459 66.7496 45.6192 67.3443 45.2734C67.9391 44.9276 69.1616 44.1536 70.0702 43.5607C71.1605 42.8526 72.383 41.8317 73.6386 40.5801C75.175 39.0651 75.6706 38.4558 76.1166 37.5336C76.6453 36.4303 76.6783 36.2986 76.6783 34.5695C76.6783 32.9227 76.6453 32.6757 76.2157 31.8524C75.9679 31.3583 75.3071 30.4526 74.7289 29.8598C74.1672 29.267 73.3412 28.493 72.1022 27.4885L74.7785 23.3716C76.2488 21.1156 77.9504 18.5137 78.5451 17.608C79.1398 16.7023 80.1476 15.2696 80.7918 14.4133C81.5187 13.4582 82.3448 12.5689 82.956 12.1243C83.5012 11.7291 84.3107 11.2186 84.7732 11.0045Z" fill="white"/>
<path d="M43.3899 52.4367C43.3404 52.4367 43.869 51.8768 44.5464 51.2017C45.2237 50.5265 45.8184 49.9666 45.8515 49.9666C45.901 49.9666 45.3889 50.5265 44.7116 51.2017C44.0342 51.8768 43.4395 52.4367 43.3899 52.4367Z" fill="white"/>
<path d="M41.9857 10.9222C42.3491 10.7575 43.0595 10.5105 43.5551 10.3788C44.2159 10.1811 45.0254 10.1317 46.5288 10.1647C48.1312 10.2141 48.8416 10.3129 49.6676 10.5928C50.2623 10.7904 51.2205 11.2515 51.8153 11.5974C52.41 11.9432 53.4508 12.7171 54.1281 13.2935C54.8054 13.8863 56.887 15.9942 58.7538 17.9703C60.6206 19.9464 64.1063 23.5528 66.5183 26.0064C69.7893 29.3164 71.0118 30.6667 71.3092 31.276C71.59 31.8853 71.6891 32.3793 71.6891 33.1698C71.6891 34.0425 71.6065 34.4048 71.2101 35.1459C70.9457 35.6399 70.2519 36.5291 69.6572 37.1384C69.0624 37.7313 67.9556 38.637 67.1791 39.131C66.4027 39.6415 65.2132 40.3167 64.5359 40.6625C63.8585 41.0083 61.5127 42.0622 59.332 43.0009C57.1513 43.956 54.1446 45.3228 52.6413 46.0473C51.1379 46.7554 49.139 47.8094 48.1808 48.3693C46.8426 49.1597 46.0497 49.7855 44.7115 51.1193C43.5441 52.2721 42.7897 53.1778 42.4483 53.8365C42.1509 54.3799 41.804 55.2691 41.6718 55.8126C41.5231 56.356 41.4075 57.3111 41.4075 57.9533C41.4075 58.5956 41.5562 59.6989 41.7379 60.4235C41.9196 61.148 42.3491 62.3337 42.6961 63.0583C43.043 63.7828 43.8029 65.0838 44.3811 65.9401C44.9593 66.7964 46.1158 68.4267 46.9252 69.5629C47.7513 70.6992 48.726 72.2142 49.1059 72.9388C49.4859 73.6633 49.8824 74.7008 49.998 75.2442C50.1632 76.0017 50.1632 76.4793 50.0311 77.3026C49.9319 77.8955 49.6181 78.8176 49.3537 79.3611C49.0729 79.9374 48.346 80.909 47.5695 81.7324C46.8426 82.5064 45.7027 83.478 44.9593 83.972C44.2324 84.4495 42.9604 85.1741 42.1509 85.5858C41.3414 85.981 39.7389 86.6726 38.599 87.1008C37.4591 87.529 35.6089 88.1218 34.469 88.4347C33.3291 88.7476 31.5449 89.1592 30.5041 89.3404C29.4633 89.5215 27.2661 89.7685 25.6306 89.8838C23.7308 90.0155 21.9466 90.032 20.6745 89.9497C19.5842 89.8673 18.213 89.7356 17.6183 89.6533C16.9244 89.538 16.2636 89.3074 15.768 88.9946C15.2559 88.6817 14.8098 88.2206 14.529 87.7101C14.1821 87.1173 14.0664 86.6562 14.0169 85.7011C13.9673 85.0259 14.0334 83.9555 14.1325 83.3133C14.2481 82.671 14.4794 81.5348 14.6611 80.7608C14.8429 79.9868 15.5367 77.5497 16.2141 75.3265C16.8749 73.1034 18.18 68.9536 19.1051 66.1047C20.0302 63.2559 21.3684 59.139 22.0787 56.9653C22.7891 54.7916 25.3993 46.9037 27.8608 39.4274C30.3389 31.9512 32.85 24.5079 33.4282 22.8776C34.0229 21.2473 34.8489 19.1724 35.2785 18.2667C35.708 17.361 36.4018 16.0765 36.8314 15.4178C37.2609 14.7756 38.0208 13.8205 38.5164 13.3264C39.012 12.8324 39.8546 12.1408 40.3667 11.8114C40.8953 11.4821 41.6222 11.0704 41.9857 10.9222Z" fill="white"/>
<path d="M149.56 41.36C152.387 41.36 154.6 42.2133 156.2 43.92C157.827 45.6267 158.64 47.96 158.64 50.92V64H150.8V51.96C150.8 50.76 150.467 49.8267 149.8 49.16C149.133 48.4933 148.227 48.16 147.08 48.16C145.933 48.16 145.027 48.4933 144.36 49.16C143.693 49.8267 143.36 50.76 143.36 51.96V64H135.52V51.96C135.52 50.76 135.187 49.8267 134.52 49.16C133.88 48.4933 132.987 48.16 131.84 48.16C130.667 48.16 129.747 48.4933 129.08 49.16C128.413 49.8267 128.08 50.76 128.08 51.96V64H120.24V41.56H128.08V44.52C128.773 43.56 129.667 42.8 130.76 42.24C131.88 41.6533 133.16 41.36 134.6 41.36C136.253 41.36 137.72 41.72 139 42.44C140.307 43.16 141.333 44.1733 142.08 45.48C142.88 44.2533 143.933 43.2667 145.24 42.52C146.547 41.7467 147.987 41.36 149.56 41.36ZM166.895 39.48C165.509 39.48 164.389 39.1067 163.535 38.36C162.709 37.5867 162.295 36.6267 162.295 35.48C162.295 34.3067 162.709 33.3333 163.535 32.56C164.389 31.7867 165.509 31.4 166.895 31.4C168.255 31.4 169.349 31.7867 170.175 32.56C171.029 33.3333 171.455 34.3067 171.455 35.48C171.455 36.6267 171.029 37.5867 170.175 38.36C169.349 39.1067 168.255 39.48 166.895 39.48ZM170.775 41.56V64H162.935V41.56H170.775ZM183.08 34.4V64H175.24V34.4H183.08ZM195.385 34.4V64H187.545V34.4H195.385ZM198.569 52.76C198.569 50.44 198.983 48.4133 199.809 46.68C200.663 44.9467 201.809 43.6133 203.249 42.68C204.716 41.7467 206.343 41.28 208.129 41.28C209.676 41.28 211.009 41.5867 212.129 42.2C213.249 42.8133 214.116 43.64 214.729 44.68V41.56H222.569V64H214.729V60.88C214.116 61.92 213.236 62.7467 212.089 63.36C210.969 63.9733 209.649 64.28 208.129 64.28C206.343 64.28 204.716 63.8133 203.249 62.88C201.809 61.9467 200.663 60.6133 199.809 58.88C198.983 57.12 198.569 55.08 198.569 52.76ZM214.729 52.76C214.729 51.32 214.329 50.1867 213.529 49.36C212.756 48.5333 211.796 48.12 210.649 48.12C209.476 48.12 208.503 48.5333 207.729 49.36C206.956 50.16 206.569 51.2933 206.569 52.76C206.569 54.2 206.956 55.3467 207.729 56.2C208.503 57.0267 209.476 57.44 210.649 57.44C211.796 57.44 212.756 57.0267 213.529 56.2C214.329 55.3733 214.729 54.2267 214.729 52.76ZM242.973 41.28C244.493 41.28 245.813 41.5867 246.933 42.2C248.08 42.8133 248.96 43.64 249.573 44.68V41.56H257.413V63.76C257.413 65.8667 257.013 67.76 256.213 69.44C255.413 71.1467 254.16 72.5067 252.453 73.52C250.773 74.5333 248.64 75.04 246.053 75.04C242.586 75.04 239.813 74.2267 237.733 72.6C235.653 70.9733 234.466 68.76 234.173 65.96H241.893C242.053 66.68 242.453 67.24 243.093 67.64C243.733 68.04 244.56 68.24 245.573 68.24C248.24 68.24 249.573 66.7467 249.573 63.76V60.88C248.96 61.92 248.08 62.7467 246.933 63.36C245.813 63.9733 244.493 64.28 242.973 64.28C241.186 64.28 239.56 63.8133 238.093 62.88C236.653 61.9467 235.506 60.6133 234.653 58.88C233.826 57.12 233.413 55.08 233.413 52.76C233.413 50.44 233.826 48.4133 234.653 46.68C235.506 44.9467 236.653 43.6133 238.093 42.68C239.56 41.7467 241.186 41.28 242.973 41.28ZM249.573 52.76C249.573 51.32 249.173 50.1867 248.373 49.36C247.6 48.5333 246.64 48.12 245.493 48.12C244.32 48.12 243.346 48.5333 242.573 49.36C241.8 50.16 241.413 51.2933 241.413 52.76C241.413 54.2 241.8 55.3467 242.573 56.2C243.346 57.0267 244.32 57.44 245.493 57.44C246.64 57.44 247.6 57.0267 248.373 56.2C249.173 55.3733 249.573 54.2267 249.573 52.76ZM269.721 44.68C270.334 43.64 271.201 42.8133 272.321 42.2C273.441 41.5867 274.761 41.28 276.281 41.28C278.067 41.28 279.681 41.7467 281.121 42.68C282.587 43.6133 283.734 44.9467 284.561 46.68C285.414 48.4133 285.841 50.44 285.841 52.76C285.841 55.08 285.414 57.12 284.561 58.88C283.734 60.6133 282.587 61.9467 281.121 62.88C279.681 63.8133 278.067 64.28 276.281 64.28C274.761 64.28 273.441 63.9733 272.321 63.36C271.227 62.7467 270.361 61.92 269.721 60.88V74.72H261.881V41.56H269.721V44.68ZM277.881 52.76C277.881 51.2933 277.481 50.16 276.681 49.36C275.907 48.5333 274.947 48.12 273.801 48.12C272.654 48.12 271.681 48.5333 270.881 49.36C270.107 50.1867 269.721 51.32 269.721 52.76C269.721 54.2267 270.107 55.3733 270.881 56.2C271.681 57.0267 272.654 57.44 273.801 57.44C274.947 57.44 275.907 57.0267 276.681 56.2C277.481 55.3467 277.881 54.2 277.881 52.76Z" fill="white"/>
</svg>
