<svg width="500" height="500" viewBox="0 0 500 500" fill="none" xmlns="http://www.w3.org/2000/svg">
<rect width="500" height="500" fill="white"/>
<path d="M217.145 27.8569C220.702 27.1573 226.415 26.2244 229.972 25.8163C233.529 25.4081 241.749 25.0583 248.338 25C254.926 25 264.08 25.3498 268.744 25.8163C273.409 26.2827 279.414 27.0407 282.154 27.5654C284.895 28.0901 290.667 29.4311 294.981 30.5389C299.296 31.6467 306.409 33.9206 310.723 35.5531C315.038 37.1856 321.218 39.751 324.425 41.2086C327.632 42.7245 333.171 45.6397 336.669 47.6804C340.167 49.6627 345.823 53.2193 349.204 55.4931C352.586 57.7087 358.358 62.1398 362.031 65.23C365.704 68.3201 371.593 73.8007 375.091 77.4739C378.59 81.147 383.487 86.6276 385.936 89.6595C388.326 92.6913 392.349 98.2302 394.798 101.903C397.247 105.577 400.687 111.232 402.494 114.439C404.244 117.646 407.275 123.884 409.258 128.315C411.182 132.688 413.747 139.276 415.03 142.891C416.254 146.448 418.237 153.095 419.344 157.584C420.452 162.073 421.91 169.012 422.609 173.035C423.251 177.058 424.067 183.471 424.417 187.319C424.708 191.167 425 198.105 425 202.77C425 207.434 424.708 214.256 424.417 217.929C424.067 221.602 423.134 228.599 422.376 233.38C421.56 238.219 420.044 245.39 418.936 249.413C417.828 253.436 415.729 260.141 414.214 264.281C412.756 268.42 409.199 276.583 406.342 282.355C403.427 288.361 398.705 296.581 395.44 301.596C392.233 306.435 387.277 313.256 384.362 316.755C381.505 320.253 376.374 325.909 373.051 329.29C369.669 332.672 364.713 337.278 362.031 339.552C359.291 341.826 354.452 345.615 351.245 347.948C348.038 350.28 342.383 353.953 338.71 356.11C335.036 358.326 329.343 361.824 325.029 363.923C320.714 366.022 316.983 367.771 316.749 367.771C316.458 367.771 316.341 361.824 316.574 341.417L322.696 337.919C326.078 335.995 330.139 332.847 332.879 330.981C335.619 329.115 340.051 325.792 342.791 323.635C345.473 321.477 350.079 317.454 352.936 314.714C355.793 311.974 360.632 306.843 363.664 303.345C366.637 299.846 371.418 293.55 374.159 289.352C376.957 285.212 381.213 277.866 383.662 273.026C386.053 268.246 389.259 261.016 390.717 256.993C392.233 252.97 394.332 245.915 395.498 241.251C396.606 236.586 397.947 230.115 398.471 226.849C398.938 223.526 399.637 216.821 399.987 211.982C400.454 205.335 400.454 200.438 399.987 192.858C399.579 187.261 398.588 178.748 397.772 173.909C396.955 169.128 395.381 161.898 394.273 157.875C393.166 153.852 391.183 147.731 389.784 144.174C388.385 140.617 385.819 134.904 384.07 131.347C382.321 127.79 379.756 123.126 378.356 120.852C377.015 118.578 374.275 114.555 372.293 111.815C370.369 109.075 366.462 104.236 363.722 101.029C360.923 97.8221 356.376 92.9828 353.519 90.1842C350.662 87.4439 346.347 83.6541 343.957 81.7301C341.566 79.806 337.893 77.0074 335.794 75.5498C333.695 74.0922 329.089 71.2353 325.591 69.1947C322.093 67.2123 316.437 64.2971 313.056 62.7812C309.674 61.2653 304.193 59.108 300.812 57.8836C297.43 56.7175 291.25 54.9101 287.11 53.8023C282.971 52.7528 276.615 51.3535 273.117 50.7705C267.986 49.9542 263.555 49.721 250.67 49.721C238.018 49.721 233.295 49.9542 228.223 50.7705C224.666 51.3535 218.544 52.6362 214.521 53.6274C210.498 54.5603 204.202 56.426 200.528 57.7087C196.855 58.9914 189.917 61.9649 185.078 64.2971C180.297 66.6876 173.184 70.6523 169.336 73.2177C165.487 75.7247 159.949 79.6311 157.092 81.905C154.235 84.1789 149.57 88.1436 146.772 90.7673C143.915 93.3326 141.641 95.7231 141.641 96.0729C141.641 96.4811 152.369 96.7143 203.094 96.9475L207.175 102.778C209.391 105.985 216.445 116.363 222.859 125.808C229.272 135.253 237.96 147.964 242.158 153.969C246.356 159.974 249.912 164.93 250.087 164.93C250.262 164.93 251.72 163.006 253.352 160.674C254.984 158.343 262.151 147.912 269.32 137.479L269.327 137.469C276.441 127.033 285.594 113.623 297.022 96.656H345.123L345.181 285.27L338.068 291.684C334.162 295.182 328.06 301.187 314.825 311.799L314.65 222.302C314.534 143.183 313.659 132.805 313.659 132.805L248.046 222.535C248.046 222.535 178.034 127.643 174.361 122.57H93.7979L96.805 116.654C98.4375 113.506 101.761 107.909 104.21 104.236C106.6 100.562 110.448 95.0235 112.722 91.9916C114.996 88.9598 120.418 82.8379 124.733 78.3484C129.047 73.9173 135.461 67.912 139.017 64.9967C142.574 62.1398 147.821 58.1168 150.678 56.1345C153.535 54.1521 158.316 51.1203 161.173 49.4295C164.03 47.7387 169.452 44.8818 173.125 43.016C176.799 41.1503 183.62 38.1768 188.284 36.311C192.949 34.5036 199.887 32.1131 203.735 31.0636C207.583 30.0142 213.589 28.5566 217.145 27.8569Z" fill="#F01E23"/>
<path d="M79.3145 163.123C79.9559 160.382 81.5301 154.552 82.8128 150.179L85.2033 142.133H111.032L108.292 150.471C106.834 155.018 104.91 161.782 104.094 165.455C103.278 169.128 102.228 174.783 101.703 177.99C101.237 181.197 100.596 188.019 100.246 193.149C99.7793 199.971 99.7793 205.16 100.246 212.39C100.596 217.812 101.412 225.333 102.053 229.006C102.636 232.68 103.861 238.452 104.677 241.833C105.551 245.215 107.359 251.337 108.816 255.535C110.216 259.675 113.306 267.021 115.696 271.86C118.029 276.641 122.052 283.754 124.559 287.602C127.124 291.45 131.322 297.222 133.887 300.429C136.453 303.636 141.7 309.291 145.49 312.965C149.338 316.696 154.935 321.652 157.967 323.984C160.999 326.375 166.13 330.048 169.336 332.147C172.543 334.304 178.607 337.802 182.746 339.901C186.886 342 192.425 344.624 194.99 345.615C197.556 346.665 202.045 348.239 204.902 349.172C207.759 350.104 212.773 351.504 215.98 352.32C219.187 353.078 224.842 354.186 228.515 354.769C233.704 355.585 238.544 355.818 250.088 355.818C261.632 355.76 266.238 355.527 270.786 354.711C273.993 354.186 276.791 353.603 277.083 353.428C277.316 353.311 277.491 329.698 277.491 301.012C277.491 272.327 277.316 248.83 277.083 248.83C276.791 248.772 275.042 251.104 273.176 253.902C271.311 256.701 264.839 265.563 258.892 273.493C252.945 281.422 247.931 287.952 247.756 287.952C247.581 287.894 245.482 285.212 243.033 281.947C240.584 278.623 234.287 270.053 229.04 262.881C223.793 255.71 219.303 249.763 219.07 249.646C218.778 249.53 218.603 261.482 218.603 303.053H141.933L141.817 142.133H171.96L172.252 279.44L195.282 279.731V203.353H215.397L223.851 215.013C228.515 221.485 235.803 231.514 240.059 237.344C244.957 244.049 248.047 247.722 248.339 247.372C248.63 247.081 255.918 236.936 280.115 203.061L300.813 202.77V373.018L298.947 373.601C297.897 373.893 294.399 374.767 291.192 375.583C287.986 376.341 283.263 377.391 280.698 377.916C278.132 378.44 272.768 379.257 268.745 379.84C263.731 380.481 257.434 380.831 248.63 380.831C241.575 380.831 233.18 380.481 229.973 380.073C226.766 379.665 220.236 378.557 215.397 377.624C210.557 376.633 201.987 374.301 196.156 372.377C188.927 369.986 182.397 367.304 175.167 363.689C169.395 360.832 161.815 356.693 158.259 354.477C154.702 352.262 148.697 348.064 144.849 345.265C140.651 342.117 134.062 336.286 128.174 330.456C122.81 325.15 116.396 318.212 113.831 315.005C111.324 311.799 107.242 306.143 104.793 302.47C102.345 298.797 98.8465 292.85 96.9224 289.351C95.0567 285.853 92.433 280.606 91.1503 277.691C89.8093 274.775 87.7686 269.936 86.6609 266.904C85.4948 263.872 83.6873 258.334 82.5796 254.66C81.4135 250.987 79.7226 244.166 78.7898 239.501C77.7986 234.837 76.5742 227.374 75.9912 222.884C75.4081 217.695 75 210.349 75 202.77C75 196.181 75.2915 188.193 75.6997 184.987C76.0495 181.78 76.7491 176.649 77.2739 173.617C77.7986 170.586 78.6732 165.863 79.3145 163.123Z" fill="#00227D"/>
<path d="M159.725 405.88V451H147.181V426.104L138.669 451H128.173L119.597 425.912V451H107.053V405.88H122.221L133.549 435.192L144.621 405.88H159.725ZM179.409 405.88V451H166.865V405.88H179.409ZM199.097 441.4H213.113V451H186.553V405.88H199.097V441.4ZM230.534 441.4H244.55V451H217.99V405.88H230.534V441.4ZM277.972 443.64H261.972L259.54 451H246.356L262.804 405.88H277.268L293.652 451H280.404L277.972 443.64ZM274.836 434.04L269.972 419.448L265.172 434.04H274.836Z" fill="#00227D"/>
<path d="M338.79 420.728C338.065 419.533 337.062 418.616 335.782 417.976C334.545 417.336 333.073 417.016 331.366 417.016C328.209 417.016 325.713 418.04 323.878 420.088C322.086 422.136 321.19 424.888 321.19 428.344C321.19 432.227 322.15 435.192 324.07 437.24C326.033 439.245 328.87 440.248 332.582 440.248C336.977 440.248 340.113 438.264 341.99 434.296H329.382V425.272H352.806V437.432C351.825 439.821 350.374 442.061 348.454 444.152C346.577 446.243 344.188 447.971 341.286 449.336C338.385 450.659 335.078 451.32 331.366 451.32C326.844 451.32 322.833 450.36 319.334 448.44C315.878 446.477 313.19 443.768 311.27 440.312C309.393 436.813 308.454 432.824 308.454 428.344C308.454 423.907 309.393 419.96 311.27 416.504C313.19 413.005 315.878 410.296 319.334 408.376C322.79 406.413 326.78 405.432 331.302 405.432C336.977 405.432 341.67 406.797 345.382 409.528C349.094 412.259 351.398 415.992 352.294 420.728H338.79ZM394.076 420.92C394.076 423.651 393.436 426.147 392.156 428.408C390.918 430.627 389.02 432.419 386.46 433.784C383.942 435.107 380.849 435.768 377.18 435.768H370.972V451H358.428V405.88H377.18C380.806 405.88 383.878 406.52 386.396 407.8C388.956 409.08 390.876 410.851 392.156 413.112C393.436 415.373 394.076 417.976 394.076 420.92ZM375.964 425.784C379.505 425.784 381.276 424.163 381.276 420.92C381.276 417.635 379.505 415.992 375.964 415.992H370.972V425.784H375.964Z" fill="#F01E23"/>
</svg>
