<svg width="251" height="66" viewBox="0 0 251 66" fill="none" xmlns="http://www.w3.org/2000/svg">
<path d="M20.4136 9.03952C20.2252 9.05928 19.8684 9.05928 19.6206 9.03952C19.3728 9.01976 19.5314 9 19.9675 9C20.4037 9 20.6019 9.01976 20.4136 9.03952Z" fill="#F01E23"/>
<path d="M42.9637 9.60271C43.2314 9.47426 43.7468 9.3063 44.1036 9.22725C44.4605 9.14821 44.9462 9.08892 45.194 9.07904C45.4418 9.06916 45.977 9.14821 46.3834 9.25689C46.7898 9.3557 47.3548 9.55331 47.6225 9.69163C47.9 9.82008 48.356 10.1165 48.6434 10.3437C48.921 10.5611 49.3571 11.0255 49.595 11.3713C49.8329 11.7073 50.1302 12.1815 50.2492 12.4285C50.378 12.6755 50.6159 13.3178 50.7944 13.8612C50.9827 14.4046 51.508 16.7661 51.9838 19.0979C52.4596 21.4297 53.0642 24.3049 53.3418 25.4708C53.6094 26.6367 54.0555 28.5733 54.3231 29.7688C54.5907 30.9643 54.9079 32.3476 55.0169 32.8318C55.126 33.3258 55.2548 33.8988 55.3044 34.1162C55.354 34.3336 55.5126 35.0647 55.6612 35.7465C55.8 36.4283 56.1172 37.851 56.3551 38.9083C56.6029 39.9655 57.0688 41.8823 57.3959 43.1569C57.723 44.4315 58.2087 46.2297 58.4763 47.1585C58.7439 48.0872 59.299 49.8855 59.7252 51.1601C60.4191 53.2745 60.4885 53.561 60.4984 54.3218C60.5083 55.0036 60.4686 55.221 60.31 55.4877C60.201 55.6656 59.8739 55.9719 59.5964 56.1596C59.2494 56.377 58.7637 56.5647 58.2087 56.703C57.3859 56.9006 56.9994 56.9105 51.5378 56.95C48.3461 56.9698 45.1246 56.95 44.3713 56.9105C43.6279 56.871 43.0133 56.8117 43.0133 56.7722C43.0133 56.7228 43.2512 56.3671 43.5486 55.9818C43.8459 55.5865 44.2226 54.9739 44.3911 54.6182C44.5596 54.2626 44.6984 53.9167 44.6984 53.8574C44.6984 53.7883 44.7281 53.7488 44.7678 53.7685C44.8173 53.7883 44.8471 53.067 44.8471 50.508L44.4307 49.6681C44.2028 49.2136 43.7765 48.5516 43.4792 48.1959C43.1818 47.8402 42.6565 47.3264 42.3095 47.0498C41.9626 46.7731 41.3679 46.3384 40.9813 46.0914C40.5947 45.8542 39.8414 45.4096 39.2962 45.1132C38.7511 44.8168 37.1949 43.9967 35.827 43.3051C34.469 42.6134 32.9525 41.823 32.4569 41.5562C31.9612 41.2796 31.0791 40.7362 30.4744 40.3409C29.8698 39.9556 28.9876 39.2541 28.5118 38.7996C27.9072 38.2265 27.5503 37.8016 27.3719 37.4262C27.1538 36.9717 27.1043 36.7444 27.1043 36.0923C27.1043 35.3809 27.1439 35.2228 27.4909 34.5114C27.7882 33.8791 28.036 33.553 28.7299 32.8713C29.2552 32.3575 30.0185 31.7449 30.7222 31.2904C31.3467 30.8754 32.1496 30.3715 32.5064 30.164C32.8632 29.9565 33.5967 29.4921 34.1419 29.1364C34.7961 28.7116 35.5296 28.099 36.2829 27.3481C37.2048 26.4391 37.5021 26.0735 37.7698 25.5202C38.087 24.8582 38.1068 24.7792 38.1068 23.7417C38.1068 22.7536 38.087 22.6054 37.8292 22.1114C37.6806 21.815 37.2841 21.2716 36.9371 20.9159C36.6001 20.5602 36.1045 20.0958 35.3611 19.4931L36.9669 17.023C37.8491 15.6693 38.87 14.1082 39.2269 13.5648C39.5837 13.0214 40.1883 12.1618 40.5749 11.648C41.011 11.0749 41.5067 10.5414 41.8734 10.2746C42.2005 10.0375 42.6862 9.73116 42.9637 9.60271Z" fill="#F01E23"/>
<path d="M18.1338 34.462C18.104 34.462 18.4212 34.1261 18.8276 33.721C19.234 33.3159 19.5909 32.98 19.6107 32.98C19.6404 32.98 19.3331 33.3159 18.9267 33.721C18.5203 34.1261 18.1635 34.462 18.1338 34.462Z" fill="#F01E23"/>
<path d="M17.2914 9.55341C17.5095 9.4546 17.9357 9.3064 18.2331 9.22735C18.6296 9.10879 19.1152 9.07915 20.0173 9.09891C20.9787 9.12855 21.405 9.18783 21.9006 9.3558C22.2574 9.47437 22.8323 9.75102 23.1891 9.95851C23.546 10.166 24.1705 10.6304 24.5769 10.9762C24.9833 11.3319 26.2322 12.5966 27.3523 13.7823C28.4723 14.9679 30.5638 17.1317 32.011 18.6039C33.9736 20.5899 34.7071 21.4001 34.8855 21.7657C35.054 22.1313 35.1135 22.4277 35.1135 22.902C35.1135 23.4256 35.0639 23.643 34.826 24.0876C34.6674 24.384 34.2511 24.9176 33.8943 25.2832C33.5375 25.6389 32.8733 26.1823 32.4075 26.4787C31.9416 26.785 31.2279 27.1901 30.8215 27.3976C30.4151 27.6051 29.0076 28.2374 27.6992 28.8006C26.3908 29.3737 24.5868 30.1938 23.6848 30.6285C22.7828 31.0534 21.5834 31.6857 21.0085 32.0217C20.2056 32.4959 19.7298 32.8714 18.9269 33.6717C18.2265 34.3633 17.7738 34.9068 17.569 35.302C17.3905 35.628 17.1824 36.1616 17.1031 36.4876C17.0139 36.8137 16.9445 37.3868 16.9445 37.7721C16.9445 38.1574 17.0337 38.8194 17.1427 39.2542C17.2518 39.6889 17.5095 40.4003 17.7176 40.8351C17.9258 41.2698 18.3818 42.0504 18.7287 42.5641C19.0756 43.0779 19.7695 44.0561 20.2551 44.7379C20.7508 45.4196 21.3356 46.3286 21.5636 46.7634C21.7915 47.1981 22.0294 47.8206 22.0988 48.1466C22.1979 48.6011 22.1979 48.8877 22.1186 49.3817C22.0592 49.7374 21.8708 50.2907 21.7122 50.6167C21.5437 50.9626 21.1076 51.5455 20.6417 52.0395C20.2056 52.5039 19.5216 53.0869 19.0756 53.3833C18.6395 53.6698 17.8762 54.1046 17.3905 54.3516C16.9048 54.5887 15.9434 55.0037 15.2594 55.2606C14.5755 55.5175 13.4653 55.8732 12.7814 56.0609C12.0974 56.2486 11.0269 56.4956 10.4025 56.6043C9.77799 56.713 8.45967 56.8612 7.47837 56.9304C6.33847 57.0094 5.26795 57.0193 4.50472 56.9699C3.85051 56.9205 3.0278 56.8415 2.67096 56.7921C2.25465 56.7229 1.85817 56.5846 1.5608 56.3968C1.25352 56.2091 0.985896 55.9325 0.817389 55.6262C0.609234 55.2705 0.539849 54.9938 0.510112 54.4207C0.480376 54.0156 0.520024 53.3734 0.579497 52.9881C0.648883 52.6027 0.787653 51.921 0.896687 51.4566C1.00572 50.9922 1.42203 49.5299 1.82843 48.196C2.22492 46.8622 3.00798 44.3723 3.56306 42.6629C4.11814 40.9536 4.92103 38.4835 5.34725 37.1793C5.77347 35.875 7.33959 31.1423 8.81651 26.6565C10.3033 22.1708 11.81 17.7048 12.1569 16.7266C12.5137 15.7485 13.0094 14.5035 13.2671 13.9601C13.5248 13.4167 13.9411 12.646 14.1988 12.2508C14.4565 11.8654 14.9125 11.2924 15.2099 10.996C15.5072 10.6995 16.0127 10.2846 16.32 10.087C16.6372 9.88935 17.0733 9.64233 17.2914 9.55341Z" fill="#00227D"/>
<path d="M99.216 23.096C102.325 23.096 104.76 24.0347 106.52 25.912C108.309 27.7893 109.204 30.356 109.204 33.612V48H100.58V34.756C100.58 33.436 100.213 32.4093 99.48 31.676C98.7467 30.9427 97.7493 30.576 96.488 30.576C95.2267 30.576 94.2293 30.9427 93.496 31.676C92.7627 32.4093 92.396 33.436 92.396 34.756V48H83.772V34.756C83.772 33.436 83.4053 32.4093 82.672 31.676C81.968 30.9427 80.9853 30.576 79.724 30.576C78.4333 30.576 77.4213 30.9427 76.688 31.676C75.9547 32.4093 75.588 33.436 75.588 34.756V48H66.964V23.316H75.588V26.572C76.3507 25.516 77.3333 24.68 78.536 24.064C79.768 23.4187 81.176 23.096 82.76 23.096C84.5787 23.096 86.192 23.492 87.6 24.284C89.0373 25.076 90.1667 26.1907 90.988 27.628C91.868 26.2787 93.0267 25.1933 94.464 24.372C95.9013 23.5213 97.4853 23.096 99.216 23.096ZM118.285 21.028C116.76 21.028 115.528 20.6173 114.589 19.796C113.68 18.9453 113.225 17.8893 113.225 16.628C113.225 15.3373 113.68 14.2667 114.589 13.416C115.528 12.5653 116.76 12.14 118.285 12.14C119.781 12.14 120.984 12.5653 121.893 13.416C122.832 14.2667 123.301 15.3373 123.301 16.628C123.301 17.8893 122.832 18.9453 121.893 19.796C120.984 20.6173 119.781 21.028 118.285 21.028ZM122.553 23.316V48H113.929V23.316H122.553ZM136.088 15.44V48H127.464V15.44H136.088ZM149.623 15.44V48H140.999V15.44H149.623ZM153.126 35.636C153.126 33.084 153.581 30.8547 154.49 28.948C155.429 27.0413 156.69 25.5747 158.274 24.548C159.888 23.5213 161.677 23.008 163.642 23.008C165.344 23.008 166.81 23.3453 168.042 24.02C169.274 24.6947 170.228 25.604 170.902 26.748V23.316H179.526V48H170.902V44.568C170.228 45.712 169.26 46.6213 167.998 47.296C166.766 47.9707 165.314 48.308 163.642 48.308C161.677 48.308 159.888 47.7947 158.274 46.768C156.69 45.7413 155.429 44.2747 154.49 42.368C153.581 40.432 153.126 38.188 153.126 35.636ZM170.902 35.636C170.902 34.052 170.462 32.8053 169.582 31.896C168.732 30.9867 167.676 30.532 166.414 30.532C165.124 30.532 164.053 30.9867 163.202 31.896C162.352 32.776 161.926 34.0227 161.926 35.636C161.926 37.22 162.352 38.4813 163.202 39.42C164.053 40.3293 165.124 40.784 166.414 40.784C167.676 40.784 168.732 40.3293 169.582 39.42C170.462 38.5107 170.902 37.2493 170.902 35.636ZM201.97 23.008C203.642 23.008 205.094 23.3453 206.326 24.02C207.588 24.6947 208.556 25.604 209.23 26.748V23.316H217.854V47.736C217.854 50.0533 217.414 52.136 216.534 53.984C215.654 55.8613 214.276 57.3573 212.398 58.472C210.55 59.5867 208.204 60.144 205.358 60.144C201.545 60.144 198.494 59.2493 196.206 57.46C193.918 55.6707 192.613 53.236 192.29 50.156H200.782C200.958 50.948 201.398 51.564 202.102 52.004C202.806 52.444 203.716 52.664 204.83 52.664C207.764 52.664 209.23 51.0213 209.23 47.736V44.568C208.556 45.712 207.588 46.6213 206.326 47.296C205.094 47.9707 203.642 48.308 201.97 48.308C200.005 48.308 198.216 47.7947 196.602 46.768C195.018 45.7413 193.757 44.2747 192.818 42.368C191.909 40.432 191.454 38.188 191.454 35.636C191.454 33.084 191.909 30.8547 192.818 28.948C193.757 27.0413 195.018 25.5747 196.602 24.548C198.216 23.5213 200.005 23.008 201.97 23.008ZM209.23 35.636C209.23 34.052 208.79 32.8053 207.91 31.896C207.06 30.9867 206.004 30.532 204.742 30.532C203.452 30.532 202.381 30.9867 201.53 31.896C200.68 32.776 200.254 34.0227 200.254 35.636C200.254 37.22 200.68 38.4813 201.53 39.42C202.381 40.3293 203.452 40.784 204.742 40.784C206.004 40.784 207.06 40.3293 207.91 39.42C208.79 38.5107 209.23 37.2493 209.23 35.636ZM231.393 26.748C232.067 25.604 233.021 24.6947 234.253 24.02C235.485 23.3453 236.937 23.008 238.609 23.008C240.574 23.008 242.349 23.5213 243.933 24.548C245.546 25.5747 246.807 27.0413 247.717 28.948C248.655 30.8547 249.125 33.084 249.125 35.636C249.125 38.188 248.655 40.432 247.717 42.368C246.807 44.2747 245.546 45.7413 243.933 46.768C242.349 47.7947 240.574 48.308 238.609 48.308C236.937 48.308 235.485 47.9707 234.253 47.296C233.05 46.6213 232.097 45.712 231.393 44.568V59.792H222.769V23.316H231.393V26.748ZM240.369 35.636C240.369 34.0227 239.929 32.776 239.049 31.896C238.198 30.9867 237.142 30.532 235.881 30.532C234.619 30.532 233.549 30.9867 232.669 31.896C231.818 32.8053 231.393 34.052 231.393 35.636C231.393 37.2493 231.818 38.5107 232.669 39.42C233.549 40.3293 234.619 40.784 235.881 40.784C237.142 40.784 238.198 40.3293 239.049 39.42C239.929 38.4813 240.369 37.22 240.369 35.636Z" fill="#00227D"/>
</svg>
