<svg width="200" height="200" viewBox="0 0 200 200" fill="none" xmlns="http://www.w3.org/2000/svg">
<path d="M68.0604 24.1252C67.4641 24.1877 66.3341 24.1877 65.5494 24.1252C64.7646 24.0626 65.2669 24 66.648 24C68.0291 24 68.6568 24.0626 68.0604 24.1252Z" fill="#F01E23"/>
<path d="M139.469 25.9086C140.317 25.5018 141.949 24.9699 143.079 24.7196C144.209 24.4693 145.747 24.2816 146.532 24.2503C147.316 24.219 149.011 24.4693 150.298 24.8135C151.585 25.1264 153.374 25.7521 154.222 26.1902C155.101 26.5969 156.545 27.5356 157.455 28.2552C158.334 28.9435 159.715 30.4141 160.468 31.5092C161.222 32.573 162.163 34.0748 162.54 34.857C162.948 35.6392 163.701 37.673 164.266 39.3938C164.863 41.1147 166.526 48.5926 168.033 55.9766C169.54 63.3606 171.454 72.4655 172.333 76.1575C173.181 79.8495 174.593 85.982 175.441 89.7679C176.288 93.5537 177.293 97.9341 177.638 99.4672C177.983 101.032 178.391 102.846 178.548 103.535C178.705 104.223 179.207 106.538 179.678 108.697C180.118 110.856 181.122 115.362 181.875 118.709C182.66 122.057 184.135 128.127 185.171 132.163C186.207 136.2 187.745 141.894 188.592 144.835C189.44 147.776 191.198 153.471 192.547 157.507C194.745 164.203 194.964 165.11 194.996 167.519C195.027 169.678 194.901 170.366 194.399 171.211C194.054 171.774 193.018 172.744 192.139 173.339C191.041 174.027 189.503 174.622 187.745 175.06C185.14 175.685 183.916 175.717 166.62 175.842C156.513 175.904 146.312 175.842 143.927 175.717C141.572 175.591 139.626 175.404 139.626 175.279C139.626 175.122 140.38 173.996 141.321 172.776C142.263 171.524 143.456 169.584 143.989 168.458C144.523 167.331 144.962 166.236 144.962 166.049C144.962 165.83 145.057 165.704 145.182 165.767C145.339 165.83 145.433 163.546 145.433 155.442L144.115 152.782C143.393 151.343 142.043 149.247 141.102 148.12C140.16 146.994 138.496 145.367 137.398 144.491C136.299 143.615 134.416 142.238 133.192 141.456C131.967 140.705 129.582 139.297 127.856 138.358C126.129 137.42 121.201 134.823 116.87 132.633C112.569 130.443 107.767 127.94 106.198 127.095C104.628 126.219 101.834 124.498 99.9198 123.246C98.0051 122.026 95.2115 119.805 93.7049 118.365C91.7902 116.551 90.6602 115.205 90.0952 114.016C89.4046 112.577 89.2477 111.857 89.2477 109.792C89.2477 107.54 89.3733 107.039 90.4719 104.786C91.4135 102.784 92.1982 101.751 94.3954 99.5924C96.059 97.9654 98.4759 96.0255 100.705 94.5863C102.682 93.2721 105.224 91.6764 106.354 91.0194C107.484 90.3623 109.807 88.8918 111.534 87.7654C113.605 86.42 115.928 84.4802 118.313 82.1022C121.233 79.2237 122.174 78.0661 123.022 76.3139C124.026 74.2176 124.089 73.9673 124.089 70.682C124.089 67.5532 124.026 67.0839 123.21 65.5195C122.739 64.5808 121.484 62.86 120.385 61.7336C119.318 60.6072 117.748 59.1367 115.394 57.2281L120.479 49.406C123.273 45.1196 126.506 40.176 127.636 38.4552C128.766 36.7343 130.681 34.0122 131.905 32.3852C133.286 30.5705 134.855 28.881 136.017 28.0362C137.052 27.2853 138.59 26.3153 139.469 25.9086Z" fill="#F01E23"/>
<path d="M60.8411 104.63C60.7469 104.63 61.7513 103.566 63.0383 102.283C64.3252 101 65.4552 99.9365 65.518 99.9365C65.6121 99.9365 64.6391 101 63.3522 102.283C62.0652 103.566 60.9352 104.63 60.8411 104.63Z" fill="#F01E23"/>
<path d="M58.1728 25.7521C58.8634 25.4392 60.2131 24.9699 61.1547 24.7195C62.4103 24.3441 63.9483 24.2502 66.8046 24.3128C69.8493 24.4067 71.199 24.5944 72.7685 25.1263C73.8985 25.5018 75.719 26.3778 76.849 27.0349C77.979 27.6919 79.9564 29.1625 81.2434 30.2576C82.5303 31.3839 86.4853 35.3888 90.0322 39.1434C93.5791 42.898 100.202 49.7501 104.785 54.4121C111 60.701 113.322 63.2667 113.887 64.4243C114.421 65.582 114.609 66.5206 114.609 68.0225C114.609 69.6807 114.452 70.3691 113.699 71.7771C113.197 72.7157 111.879 74.4053 110.749 75.5629C109.619 76.6893 107.516 78.4102 106.04 79.3488C104.565 80.3187 102.305 81.6016 101.018 82.2586C99.7312 82.9157 95.274 84.9181 91.1308 86.7015C86.9875 88.5163 81.2748 91.1132 78.4184 92.4899C75.562 93.8353 71.764 95.8377 69.9435 96.9015C67.401 98.4033 65.8944 99.5923 63.3519 102.127C61.1338 104.317 59.7004 106.038 59.0517 107.289C58.4867 108.322 57.8275 110.011 57.5764 111.044C57.2939 112.076 57.0742 113.891 57.0742 115.111C57.0742 116.332 57.3567 118.428 57.702 119.804C58.0473 121.181 58.8634 123.434 59.5225 124.811C60.1817 126.187 61.6255 128.659 62.7241 130.286C63.8227 131.913 66.0199 135.011 67.558 137.169C69.1274 139.328 70.9793 142.207 71.7013 143.584C72.4232 144.96 73.1765 146.931 73.3962 147.964C73.7101 149.403 73.7101 150.311 73.459 151.875C73.2707 153.001 72.6743 154.753 72.1721 155.786C71.6385 156.881 70.2574 158.727 68.7821 160.291C67.401 161.762 65.2352 163.608 63.8227 164.547C62.4416 165.454 60.0247 166.831 58.4867 167.613C56.9487 168.364 53.904 169.678 51.7382 170.491C49.5723 171.305 46.0568 172.431 43.891 173.026C41.7252 173.62 38.3353 174.402 36.3578 174.747C34.3803 175.091 30.2056 175.56 27.0982 175.779C23.4885 176.029 20.0985 176.061 17.6816 175.904C15.61 175.748 13.0047 175.498 11.8747 175.341C10.5564 175.122 9.30086 174.684 8.35921 174.09C7.38616 173.495 6.53867 172.619 6.00507 171.649C5.34591 170.523 5.12619 169.647 5.03202 167.832C4.93786 166.549 5.06341 164.515 5.25174 163.295C5.47146 162.075 5.9109 159.916 6.25617 158.445C6.60145 156.975 7.91977 152.344 9.2067 148.12C10.4622 143.896 12.9419 136.012 14.6997 130.599C16.4574 125.186 18.9999 117.364 20.3496 113.234C21.6993 109.104 26.6587 94.1169 31.3356 79.912C36.0439 65.7071 40.8149 51.5649 41.9135 48.4673C43.0435 45.3698 44.613 41.4275 45.4291 39.7066C46.2452 37.9858 47.5635 35.5453 48.3796 34.2937C49.1957 33.0735 50.6396 31.2588 51.5812 30.3201C52.5229 29.3815 54.1237 28.0674 55.0967 27.4416C56.1012 26.8159 57.4823 26.0337 58.1728 25.7521Z" fill="#00227D"/>
</svg>
