<svg width="300" height="100" viewBox="0 0 300 100" fill="none" xmlns="http://www.w3.org/2000/svg">
<path d="M67.9136 26.0395C67.7252 26.0593 67.3684 26.0593 67.1206 26.0395C66.8728 26.0198 67.0314 26 67.4675 26C67.9037 26 68.1019 26.0198 67.9136 26.0395Z" fill="#F01E23"/>
<path d="M90.4637 26.6027C90.7314 26.4743 91.2468 26.3063 91.6036 26.2273C91.9605 26.1482 92.4462 26.0889 92.694 26.079C92.9418 26.0692 93.477 26.1482 93.8834 26.2569C94.2898 26.3557 94.8548 26.5533 95.1225 26.6916C95.4 26.8201 95.856 27.1165 96.1434 27.3437C96.421 27.5611 96.8571 28.0255 97.095 28.3713C97.3329 28.7073 97.6302 29.1815 97.7492 29.4285C97.878 29.6755 98.1159 30.3178 98.2944 30.8612C98.4827 31.4046 99.008 33.7661 99.4838 36.0979C99.9596 38.4297 100.564 41.3049 100.842 42.4708C101.109 43.6367 101.555 45.5733 101.823 46.7688C102.091 47.9643 102.408 49.3476 102.517 49.8318C102.626 50.3258 102.755 50.8988 102.804 51.1162C102.854 51.3336 103.013 52.0647 103.161 52.7465C103.3 53.4283 103.617 54.851 103.855 55.9083C104.103 56.9655 104.569 58.8823 104.896 60.1569C105.223 61.4315 105.709 63.2297 105.976 64.1585C106.244 65.0872 106.799 66.8855 107.225 68.1601C107.919 70.2745 107.988 70.561 107.998 71.3218C108.008 72.0036 107.969 72.221 107.81 72.4877C107.701 72.6656 107.374 72.9719 107.096 73.1596C106.749 73.377 106.264 73.5647 105.709 73.703C104.886 73.9006 104.499 73.9105 99.0378 73.95C95.8461 73.9698 92.6246 73.95 91.8713 73.9105C91.1279 73.871 90.5133 73.8117 90.5133 73.7722C90.5133 73.7228 90.7512 73.3671 91.0486 72.9818C91.3459 72.5865 91.7226 71.9739 91.8911 71.6182C92.0596 71.2626 92.1984 70.9167 92.1984 70.8574C92.1984 70.7883 92.2281 70.7488 92.2678 70.7685C92.3173 70.7883 92.3471 70.067 92.3471 67.508L91.9307 66.6681C91.7028 66.2136 91.2765 65.5516 90.9792 65.1959C90.6818 64.8402 90.1565 64.3264 89.8095 64.0498C89.4626 63.7731 88.8679 63.3384 88.4813 63.0914C88.0947 62.8542 87.3414 62.4096 86.7962 62.1132C86.2511 61.8168 84.6949 60.9967 83.327 60.3051C81.969 59.6134 80.4525 58.823 79.9569 58.5562C79.4612 58.2796 78.5791 57.7362 77.9744 57.3409C77.3698 56.9556 76.4876 56.2541 76.0118 55.7996C75.4072 55.2265 75.0503 54.8016 74.8719 54.4262C74.6538 53.9717 74.6043 53.7444 74.6043 53.0923C74.6043 52.3809 74.6439 52.2228 74.9909 51.5114C75.2882 50.8791 75.536 50.553 76.2299 49.8713C76.7552 49.3575 77.5185 48.7449 78.2222 48.2904C78.8467 47.8754 79.6496 47.3715 80.0064 47.164C80.3632 46.9565 81.0967 46.4921 81.6419 46.1364C82.2961 45.7116 83.0296 45.099 83.7829 44.3481C84.7048 43.4391 85.0021 43.0735 85.2698 42.5202C85.587 41.8582 85.6068 41.7792 85.6068 40.7417C85.6068 39.7536 85.587 39.6054 85.3292 39.1114C85.1806 38.815 84.7841 38.2716 84.4371 37.9159C84.1001 37.5602 83.6045 37.0958 82.8611 36.4931L84.4669 34.023C85.3491 32.6693 86.37 31.1082 86.7269 30.5648C87.0837 30.0214 87.6883 29.1618 88.0749 28.648C88.511 28.0749 89.0067 27.5414 89.3734 27.2746C89.7005 27.0375 90.1862 26.7312 90.4637 26.6027Z" fill="#F01E23"/>
<path d="M65.6338 51.462C65.604 51.462 65.9212 51.1261 66.3276 50.721C66.734 50.3159 67.0909 49.98 67.1107 49.98C67.1404 49.98 66.8331 50.3159 66.4267 50.721C66.0203 51.1261 65.6635 51.462 65.6338 51.462Z" fill="#F01E23"/>
<path d="M64.7914 26.5534C65.0095 26.4546 65.4357 26.3064 65.7331 26.2274C66.1296 26.1088 66.6152 26.0791 67.5173 26.0989C68.4787 26.1285 68.905 26.1878 69.4006 26.3558C69.7574 26.4744 70.3323 26.751 70.6891 26.9585C71.046 27.166 71.6705 27.6304 72.0769 27.9762C72.4833 28.3319 73.7322 29.5966 74.8523 30.7823C75.9723 31.9679 78.0638 34.1317 79.511 35.6039C81.4736 37.5899 82.2071 38.4001 82.3855 38.7657C82.554 39.1313 82.6135 39.4277 82.6135 39.902C82.6135 40.4256 82.5639 40.643 82.326 41.0876C82.1674 41.384 81.7511 41.9176 81.3943 42.2832C81.0375 42.6389 80.3733 43.1823 79.9075 43.4787C79.4416 43.785 78.7279 44.1901 78.3215 44.3976C77.9151 44.6051 76.5076 45.2374 75.1992 45.8006C73.8908 46.3737 72.0868 47.1938 71.1848 47.6285C70.2828 48.0534 69.0834 48.6857 68.5085 49.0217C67.7056 49.4959 67.2298 49.8714 66.4269 50.6717C65.7265 51.3633 65.2738 51.9068 65.069 52.302C64.8905 52.628 64.6824 53.1616 64.6031 53.4876C64.5139 53.8137 64.4445 54.3868 64.4445 54.7721C64.4445 55.1574 64.5337 55.8194 64.6427 56.2542C64.7518 56.6889 65.0095 57.4003 65.2176 57.8351C65.4258 58.2698 65.8818 59.0504 66.2287 59.5641C66.5756 60.0779 67.2695 61.0561 67.7551 61.7379C68.2508 62.4196 68.8356 63.3286 69.0636 63.7634C69.2915 64.1981 69.5294 64.8206 69.5988 65.1466C69.6979 65.6011 69.6979 65.8877 69.6186 66.3817C69.5592 66.7374 69.3708 67.2907 69.2122 67.6167C69.0437 67.9626 68.6076 68.5455 68.1417 69.0395C67.7056 69.5039 67.0216 70.0869 66.5756 70.3833C66.1395 70.6698 65.3762 71.1046 64.8905 71.3516C64.4048 71.5887 63.4434 72.0037 62.7594 72.2606C62.0755 72.5175 60.9653 72.8732 60.2814 73.0609C59.5974 73.2486 58.5269 73.4956 57.9025 73.6043C57.278 73.713 55.9597 73.8612 54.9784 73.9304C53.8385 74.0094 52.768 74.0193 52.0047 73.9699C51.3505 73.9205 50.5278 73.8415 50.171 73.7921C49.7547 73.7229 49.3582 73.5846 49.0608 73.3968C48.7535 73.2091 48.4859 72.9325 48.3174 72.6262C48.1092 72.2705 48.0398 71.9938 48.0101 71.4207C47.9804 71.0156 48.02 70.3734 48.0795 69.9881C48.1489 69.6027 48.2877 68.921 48.3967 68.4566C48.5057 67.9922 48.922 66.5299 49.3284 65.196C49.7249 63.8622 50.508 61.3723 51.0631 59.6629C51.6181 57.9536 52.421 55.4835 52.8472 54.1793C53.2735 52.875 54.8396 48.1423 56.3165 43.6565C57.8033 39.1708 59.31 34.7048 59.6569 33.7266C60.0137 32.7485 60.5094 31.5035 60.7671 30.9601C61.0248 30.4167 61.4411 29.646 61.6988 29.2508C61.9565 28.8654 62.4125 28.2924 62.7099 27.996C63.0072 27.6995 63.5127 27.2846 63.82 27.087C64.1372 26.8893 64.5733 26.6423 64.7914 26.5534Z" fill="#00227D"/>
<path d="M143.196 65H134.572L123.088 47.664V65H114.464V33.98H123.088L134.572 51.536V33.98H143.196V65ZM146.701 52.636C146.701 50.084 147.155 47.8547 148.065 45.948C149.003 44.0413 150.265 42.5747 151.849 41.548C153.462 40.5213 155.251 40.008 157.217 40.008C158.918 40.008 160.385 40.3453 161.617 41.02C162.849 41.6947 163.802 42.604 164.477 43.748V40.316H173.101V65H164.477V61.568C163.802 62.712 162.834 63.6213 161.573 64.296C160.341 64.9707 158.889 65.308 157.217 65.308C155.251 65.308 153.462 64.7947 151.849 63.768C150.265 62.7413 149.003 61.2747 148.065 59.368C147.155 57.432 146.701 55.188 146.701 52.636ZM164.477 52.636C164.477 51.052 164.037 49.8053 163.157 48.896C162.306 47.9867 161.25 47.532 159.989 47.532C158.698 47.532 157.627 47.9867 156.777 48.896C155.926 49.776 155.501 51.0227 155.501 52.636C155.501 54.22 155.926 55.4813 156.777 56.42C157.627 57.3293 158.698 57.784 159.989 57.784C161.25 57.784 162.306 57.3293 163.157 56.42C164.037 55.5107 164.477 54.2493 164.477 52.636ZM210.267 40.096C213.376 40.096 215.811 41.0347 217.571 42.912C219.36 44.7893 220.255 47.356 220.255 50.612V65H211.631V51.756C211.631 50.436 211.264 49.4093 210.531 48.676C209.797 47.9427 208.8 47.576 207.539 47.576C206.277 47.576 205.28 47.9427 204.547 48.676C203.813 49.4093 203.447 50.436 203.447 51.756V65H194.823V51.756C194.823 50.436 194.456 49.4093 193.723 48.676C193.019 47.9427 192.036 47.576 190.775 47.576C189.484 47.576 188.472 47.9427 187.739 48.676C187.005 49.4093 186.639 50.436 186.639 51.756V65H178.015V40.316H186.639V43.572C187.401 42.516 188.384 41.68 189.587 41.064C190.819 40.4187 192.227 40.096 193.811 40.096C195.629 40.096 197.243 40.492 198.651 41.284C200.088 42.076 201.217 43.1907 202.039 44.628C202.919 43.2787 204.077 42.1933 205.515 41.372C206.952 40.5213 208.536 40.096 210.267 40.096ZM250.236 40.316V65H241.568V61.48C240.834 62.5947 239.822 63.504 238.532 64.208C237.241 64.8827 235.76 65.22 234.088 65.22C231.213 65.22 228.94 64.2813 227.268 62.404C225.625 60.4973 224.804 57.916 224.804 54.66V40.316H233.384V53.56C233.384 54.968 233.75 56.0827 234.484 56.904C235.246 57.696 236.244 58.092 237.476 58.092C238.737 58.092 239.734 57.696 240.468 56.904C241.201 56.0827 241.568 54.968 241.568 53.56V40.316H250.236ZM242.976 34.332L231.976 38.644V32.792L242.976 27.82V34.332Z" fill="#00227D"/>
</svg>
