<svg width="300" height="100" viewBox="0 0 300 100" fill="none" xmlns="http://www.w3.org/2000/svg">
<path fill-rule="evenodd" clip-rule="evenodd" d="M87.3579 74.4679C83.0537 74.4304 77.6873 74.2993 75.4327 74.1869C73.1781 74.0933 69.9546 73.9059 68.259 73.8123C66.5634 73.6999 64.551 73.5313 63.787 73.4189C63.0231 73.3253 61.961 73.1567 61.4579 73.0255C60.9362 72.9132 60.3027 72.7071 60.0045 72.576C59.725 72.4261 59.5014 72.1639 59.5014 71.9953C59.4828 71.808 59.6505 71.4521 59.8368 71.1898C60.0232 70.9276 62.0728 69.2043 64.3647 67.3685C66.6565 65.5141 69.2093 63.4349 70.0291 62.7605C70.849 62.0862 72.6937 60.5689 76.737 57.2534L81.0227 58.5084C83.3704 59.2015 86.6126 60.1568 88.1964 60.6438C90.4137 61.2995 91.3827 61.5055 92.3888 61.5055C93.3205 61.5055 94.0099 61.3744 94.8111 61.0747C95.4447 60.8124 96.2832 60.2879 96.7117 59.8758C97.3453 59.2577 97.2194 59.4402 97.6342 58.5367C98.049 57.6332 97.9335 56.2945 94.5029 53.0572C91.0722 49.8198 90.2779 49.4422 89.0481 48.4682C87.8369 47.4754 86.9658 46.2221 87.7854 44.4971C88.605 42.772 90.9716 42.9762 91.9789 43.2046C92.9862 43.433 94.6062 43.8602 96.8608 44.4971C99.1154 45.1527 102.227 46.1267 103.755 46.6512C105.302 47.1757 107.519 47.9812 108.693 48.4682C109.867 48.9365 111.544 49.6858 112.419 50.1166C113.295 50.5661 114.637 51.3716 115.401 51.9148C116.165 52.4581 117.208 53.3385 117.711 53.8629C118.214 54.3687 118.811 55.2491 119.053 55.7736C119.295 56.3168 119.5 57.1035 119.5 57.5156C119.5 57.9277 119.332 58.7519 119.127 59.3326C118.922 59.932 118.382 60.9623 117.935 61.6366C117.469 62.311 116.332 63.6222 115.363 64.54C114.413 65.4766 112.997 66.6942 112.233 67.2749C111.469 67.8556 110.165 68.7547 109.345 69.2605C108.525 69.7849 106.979 70.6466 105.898 71.1898C104.817 71.733 103.177 72.4449 102.264 72.782C101.351 73.1192 100.047 73.55 99.3763 73.7186C98.7055 73.9059 97.4943 74.1682 96.6745 74.2993C95.5192 74.4866 93.395 74.5428 87.3579 74.4679Z" fill="#F01E23"/>
<path fill-rule="evenodd" clip-rule="evenodd" d="M91.6421 25.5321C95.9463 25.5696 101.313 25.7007 103.567 25.8131C105.822 25.9067 109.045 26.0941 110.741 26.1877C112.437 26.3001 114.449 26.4687 115.213 26.5811C115.977 26.6747 117.039 26.8433 117.542 26.9745C118.064 27.0868 118.697 27.2929 118.995 27.424C119.275 27.5739 119.499 27.8361 119.499 28.0047C119.517 28.192 119.349 28.5479 119.163 28.8102C118.977 29.0724 116.927 30.7957 114.635 32.6315C112.343 34.4859 109.791 36.5651 108.971 37.2395C108.151 37.9138 106.306 39.4311 102.263 42.7466L97.9773 41.4916C95.6296 40.7985 92.3874 39.8432 90.8036 39.3562C88.5863 38.7005 87.6173 38.4945 86.6112 38.4945C85.6795 38.4945 84.9901 38.6256 84.1889 38.9253C83.5553 39.1876 82.7168 39.7121 82.2883 40.1242C81.6547 40.7423 81.7806 40.5598 81.3658 41.4633C80.951 42.3668 81.0665 43.7055 84.4971 46.9428C87.9278 50.1802 88.7221 50.5578 89.9519 51.5318C91.1631 52.5246 92.0342 53.7779 91.2146 55.5029C90.395 57.228 88.0284 57.0238 87.0211 56.7954C86.0138 56.567 84.3938 56.1398 82.1392 55.5029C79.8846 54.8473 76.7729 53.8733 75.245 53.3488C73.6984 52.8243 71.4811 52.0188 70.3072 51.5318C69.1333 51.0635 67.4563 50.3142 66.5806 49.8834C65.7048 49.4339 64.3632 48.6284 63.5993 48.0852C62.8353 47.5419 61.7919 46.6615 61.2888 46.1371C60.7857 45.6313 60.1894 44.7509 59.9472 44.2264C59.705 43.6832 59.5 42.8965 59.5 42.4844C59.5 42.0723 59.6677 41.2481 59.8727 40.6674C60.0776 40.068 60.618 39.0377 61.0652 38.3634C61.531 37.689 62.6676 36.3778 63.6365 35.46C64.5868 34.5234 66.003 33.3058 66.7669 32.7251C67.5309 32.1444 68.8352 31.2453 69.655 30.7395C70.4749 30.2151 72.0214 29.3534 73.1022 28.8102C74.1829 28.267 75.8226 27.5551 76.7356 27.218C77.6486 26.8808 78.953 26.45 79.6237 26.2814C80.2945 26.0941 81.5057 25.8318 82.3255 25.7007C83.4808 25.5134 85.605 25.4572 91.6421 25.5321Z" fill="#00227D"/>
<path d="M137.668 65.308C134.06 65.308 131.097 64.4573 128.78 62.756C126.463 61.0253 125.216 58.5613 125.04 55.364H134.236C134.324 56.4493 134.647 57.2413 135.204 57.74C135.761 58.2387 136.48 58.488 137.36 58.488C138.152 58.488 138.797 58.2973 139.296 57.916C139.824 57.5053 140.088 56.948 140.088 56.244C140.088 55.3347 139.663 54.6307 138.812 54.132C137.961 53.6333 136.583 53.076 134.676 52.46C132.652 51.7853 131.009 51.14 129.748 50.524C128.516 49.8787 127.431 48.9547 126.492 47.752C125.583 46.52 125.128 44.9213 125.128 42.956C125.128 40.9613 125.627 39.26 126.624 37.852C127.621 36.4147 129 35.3293 130.76 34.596C132.52 33.8627 134.515 33.496 136.744 33.496C140.352 33.496 143.227 34.3467 145.368 36.048C147.539 37.72 148.697 40.0813 148.844 43.132H139.472C139.443 42.1933 139.149 41.4893 138.592 41.02C138.064 40.5507 137.375 40.316 136.524 40.316C135.879 40.316 135.351 40.5067 134.94 40.888C134.529 41.2693 134.324 41.812 134.324 42.516C134.324 43.1027 134.544 43.616 134.984 44.056C135.453 44.4667 136.025 44.8333 136.7 45.156C137.375 45.4493 138.372 45.8307 139.692 46.3C141.657 46.9747 143.271 47.6493 144.532 48.324C145.823 48.9693 146.923 49.8933 147.832 51.096C148.771 52.2693 149.24 53.7653 149.24 55.584C149.24 57.432 148.771 59.0893 147.832 60.556C146.923 62.0227 145.588 63.1813 143.828 64.032C142.097 64.8827 140.044 65.308 137.668 65.308ZM157.605 38.028C156.08 38.028 154.848 37.6173 153.909 36.796C153 35.9453 152.545 34.8893 152.545 33.628C152.545 32.3373 153 31.2667 153.909 30.416C154.848 29.5653 156.08 29.14 157.605 29.14C159.101 29.14 160.304 29.5653 161.213 30.416C162.152 31.2667 162.621 32.3373 162.621 33.628C162.621 34.8893 162.152 35.9453 161.213 36.796C160.304 37.6173 159.101 38.028 157.605 38.028ZM161.873 40.316V65H153.249V40.316H161.873ZM165.376 52.636C165.376 50.084 165.831 47.8547 166.74 45.948C167.679 44.0413 168.94 42.5747 170.524 41.548C172.138 40.5213 173.927 40.008 175.892 40.008C177.594 40.008 179.06 40.3453 180.292 41.02C181.524 41.6947 182.478 42.604 183.152 43.748V40.316H191.776V65H183.152V61.568C182.478 62.712 181.51 63.6213 180.248 64.296C179.016 64.9707 177.564 65.308 175.892 65.308C173.927 65.308 172.138 64.7947 170.524 63.768C168.94 62.7413 167.679 61.2747 166.74 59.368C165.831 57.432 165.376 55.188 165.376 52.636ZM183.152 52.636C183.152 51.052 182.712 49.8053 181.832 48.896C180.982 47.9867 179.926 47.532 178.664 47.532C177.374 47.532 176.303 47.9867 175.452 48.896C174.602 49.776 174.176 51.0227 174.176 52.636C174.176 54.22 174.602 55.4813 175.452 56.42C176.303 57.3293 177.374 57.784 178.664 57.784C179.926 57.784 180.982 57.3293 181.832 56.42C182.712 55.5107 183.152 54.2493 183.152 52.636ZM228.943 40.096C232.052 40.096 234.487 41.0347 236.247 42.912C238.036 44.7893 238.931 47.356 238.931 50.612V65H230.307V51.756C230.307 50.436 229.94 49.4093 229.207 48.676C228.473 47.9427 227.476 47.576 226.215 47.576C224.953 47.576 223.956 47.9427 223.223 48.676C222.489 49.4093 222.123 50.436 222.123 51.756V65H213.499V51.756C213.499 50.436 213.132 49.4093 212.399 48.676C211.695 47.9427 210.712 47.576 209.451 47.576C208.16 47.576 207.148 47.9427 206.415 48.676C205.681 49.4093 205.315 50.436 205.315 51.756V65H196.691V40.316H205.315V43.572C206.077 42.516 207.06 41.68 208.263 41.064C209.495 40.4187 210.903 40.096 212.487 40.096C214.305 40.096 215.919 40.492 217.327 41.284C218.764 42.076 219.893 43.1907 220.715 44.628C221.595 43.2787 222.753 42.1933 224.191 41.372C225.628 40.5213 227.212 40.096 228.943 40.096Z" fill="#00227D"/>
</svg>
