<svg width="100" height="100" viewBox="0 0 100 100" fill="none" xmlns="http://www.w3.org/2000/svg">
<path fill-rule="evenodd" clip-rule="evenodd" d="M46.7869 86.9522C40.3305 86.8963 32.281 86.701 28.8991 86.5336C25.5172 86.394 20.6819 86.115 18.1385 85.9754C15.5951 85.808 12.5765 85.5568 11.4306 85.3894C10.2846 85.2499 8.6915 84.9987 7.93686 84.8034C7.15427 84.6359 6.20399 84.3289 5.75679 84.1336C5.33755 83.9103 5.00215 83.5197 5.00215 83.2685C4.9742 82.9894 5.22576 82.4592 5.50525 82.0685C5.78475 81.6778 8.8592 79.1104 12.297 76.3756C15.7348 73.6128 19.5639 70.5152 20.7937 69.5106C22.0235 68.506 24.7905 66.2455 30.8556 61.3061L37.284 63.1758C40.8056 64.2083 45.6689 65.6316 48.0446 66.3572C51.3706 67.3339 52.824 67.6408 54.3333 67.6408C55.7308 67.6408 56.7649 67.4455 57.9667 66.999C58.917 66.6083 60.1747 65.8269 60.8176 65.213C61.7679 64.2921 61.5791 64.5639 62.2014 63.2179C62.8236 61.8719 62.6502 59.8776 57.5043 55.0545C52.3583 50.2315 51.1668 49.669 49.3221 48.2179C47.5054 46.7389 46.1987 44.8717 47.4281 42.3017C48.6575 39.7318 52.2075 40.0359 53.7184 40.3762C55.2293 40.7165 57.6593 41.3529 61.0412 42.3017C64.4231 43.2785 69.0907 44.7296 71.3826 45.511C73.7024 46.2924 77.0284 47.4923 78.7892 48.2179C80.55 48.9156 83.0655 50.0318 84.3791 50.6737C85.6928 51.3434 87.7051 52.5434 88.8511 53.3527C89.997 54.162 91.5622 55.4736 92.3168 56.255C93.0715 57.0085 93.9659 58.3201 94.3292 59.1015C94.6926 59.9107 95 61.0828 95 61.6968C95 62.3107 94.7485 63.5386 94.441 64.4037C94.1336 65.2967 93.323 66.8316 92.6522 67.8362C91.9535 68.8408 90.2486 70.7943 88.7952 72.1617C87.3697 73.557 85.2456 75.371 84.0996 76.2361C82.9537 77.1012 80.9972 78.4407 79.7674 79.1941C78.5377 79.9755 76.2178 81.2592 74.5968 82.0685C72.9757 82.8778 70.5161 83.9383 69.1466 84.4406C67.777 84.9429 65.8206 85.5847 64.8144 85.8359C63.8082 86.115 61.9915 86.5057 60.7617 86.701C59.0288 86.9801 55.8426 87.0638 46.7869 86.9522Z" fill="#F01E23"/>
<path fill-rule="evenodd" clip-rule="evenodd" d="M53.2131 14.0478C59.6695 14.1037 67.719 14.299 71.1009 14.4664C74.4828 14.606 79.3181 14.885 81.8615 15.0246C84.4049 15.192 87.4235 15.4432 88.5694 15.6106C89.7154 15.7501 91.3085 16.0013 92.0631 16.1966C92.8457 16.3641 93.796 16.6711 94.2432 16.8664C94.6625 17.0897 94.9979 17.4803 94.9979 17.7315C95.0258 18.0106 94.7742 18.5408 94.4947 18.9315C94.2153 19.3222 91.1408 21.8896 87.703 24.6244C84.2652 27.3872 80.4361 30.4848 79.2063 31.4894C77.9765 32.494 75.2095 34.7545 69.1444 39.6939L62.716 37.8242C59.1944 36.7917 54.3311 35.3684 51.9554 34.6428C48.6294 33.6661 47.176 33.3592 45.6667 33.3592C44.2692 33.3592 43.2351 33.5545 42.0333 34.001C41.083 34.3917 39.8253 35.1731 39.1824 35.787C38.2321 36.7079 38.4209 36.4361 37.7986 37.7821C37.1764 39.1281 37.3498 41.1224 42.4957 45.9455C47.6417 50.7685 48.8332 51.331 50.6779 52.7821C52.4946 54.2611 53.8013 56.1283 52.5719 58.6983C51.3425 61.2682 47.7925 60.9641 46.2816 60.6238C44.7707 60.2835 42.3407 59.6471 38.9588 58.6983C35.5769 57.7215 30.9093 56.2704 28.6174 55.489C26.2976 54.7076 22.9716 53.5077 21.2108 52.7821C19.45 52.0844 16.9345 50.9682 15.6209 50.3263C14.3072 49.6566 12.2949 48.4566 11.1489 47.6473C10.003 46.838 8.43781 45.5264 7.68317 44.745C6.92852 43.9915 6.03414 42.6799 5.67079 41.8985C5.30745 41.0893 5 39.9172 5 39.3032C5 38.6893 5.25155 37.4614 5.55899 36.5963C5.86644 35.7033 6.67698 34.1684 7.34777 33.1638C8.04651 32.1592 9.75144 30.2057 11.2048 28.8383C12.6303 27.443 14.7544 25.629 15.9004 24.7639C17.0463 23.8988 19.0028 22.5593 20.2326 21.8059C21.4623 21.0245 23.7822 19.7408 25.4032 18.9315C27.0243 18.1222 29.4839 17.0617 30.8534 16.5594C32.223 16.0571 34.1794 15.4153 35.1856 15.1641C36.1918 14.885 38.0085 14.4943 39.2383 14.299C40.9712 14.0199 44.1574 13.9362 53.2131 14.0478Z" fill="#00227D"/>
</svg>
