<svg width="233" height="78" viewBox="0 0 233 78" fill="none" xmlns="http://www.w3.org/2000/svg">
<path fill-rule="evenodd" clip-rule="evenodd" d="M62.8579 63.4679C58.5537 63.4304 53.1873 63.2993 50.9327 63.1869C48.6781 63.0933 45.4546 62.9059 43.759 62.8123C42.0634 62.6999 40.051 62.5313 39.287 62.4189C38.5231 62.3253 37.461 62.1567 36.9579 62.0255C36.4362 61.9132 35.8027 61.7071 35.5045 61.576C35.225 61.4261 35.0014 61.1639 35.0014 60.9953C34.9828 60.808 35.1505 60.4521 35.3368 60.1898C35.5232 59.9276 37.5728 58.2043 39.8647 56.3685C42.1565 54.5141 44.7093 52.4349 45.5291 51.7605C46.349 51.0862 48.1937 49.5689 52.237 46.2534L56.5227 47.5084C58.8704 48.2015 62.1126 49.1568 63.6964 49.6438C65.9137 50.2995 66.8827 50.5055 67.8888 50.5055C68.8205 50.5055 69.5099 50.3744 70.3111 50.0747C70.9447 49.8124 71.7832 49.2879 72.2117 48.8758C72.8453 48.2577 72.7194 48.4402 73.1342 47.5367C73.549 46.6332 73.4335 45.2945 70.0028 42.0572C66.5722 38.8198 65.7779 38.4422 64.5481 37.4682C63.3369 36.4754 62.4658 35.2221 63.2854 33.4971C64.105 31.772 66.4716 31.9762 67.4789 32.2046C68.4862 32.433 70.1062 32.8602 72.3608 33.4971C74.6154 34.1527 77.7271 35.1267 79.255 35.6512C80.8016 36.1757 83.0189 36.9812 84.1928 37.4682C85.3667 37.9365 87.0437 38.6858 87.9194 39.1166C88.7952 39.5661 90.1368 40.3716 90.9007 40.9148C91.6647 41.4581 92.7081 42.3385 93.2112 42.8629C93.7143 43.3687 94.3106 44.2491 94.5528 44.7736C94.795 45.3168 95 46.1035 95 46.5156C95 46.9277 94.8323 47.7519 94.6273 48.3326C94.4224 48.932 93.882 49.9623 93.4348 50.6366C92.969 51.311 91.8324 52.6222 90.8635 53.54C89.9132 54.4766 88.497 55.6942 87.7331 56.2749C86.9691 56.8556 85.6648 57.7547 84.845 58.2605C84.0251 58.7849 82.4786 59.6466 81.3978 60.1898C80.3171 60.733 78.6774 61.4449 77.7644 61.782C76.8514 62.1192 75.547 62.55 74.8763 62.7186C74.2055 62.9059 72.9943 63.1682 72.1745 63.2993C71.0192 63.4866 68.895 63.5428 62.8579 63.4679Z" fill="white"/>
<path fill-rule="evenodd" clip-rule="evenodd" d="M67.1421 14.5321C71.4463 14.5696 76.8127 14.7007 79.0673 14.8131C81.3219 14.9067 84.5454 15.0941 86.241 15.1877C87.9366 15.3001 89.949 15.4687 90.713 15.5811C91.4769 15.6747 92.539 15.8433 93.0421 15.9745C93.5638 16.0868 94.1973 16.2929 94.4955 16.424C94.775 16.5739 94.9986 16.8361 94.9986 17.0047C95.0172 17.192 94.8495 17.5479 94.6632 17.8102C94.4768 18.0724 92.4272 19.7957 90.1353 21.6315C87.8435 23.4859 85.2907 25.5651 84.4709 26.2395C83.651 26.9138 81.8063 28.4311 77.763 31.7466L73.4773 30.4916C71.1296 29.7985 67.8874 28.8432 66.3036 28.3562C64.0863 27.7005 63.1173 27.4945 62.1112 27.4945C61.1795 27.4945 60.4901 27.6256 59.6889 27.9253C59.0553 28.1876 58.2168 28.7121 57.7883 29.1242C57.1547 29.7423 57.2806 29.5598 56.8658 30.4633C56.451 31.3668 56.5665 32.7055 59.9972 35.9428C63.4278 39.1802 64.2221 39.5578 65.4519 40.5318C66.6631 41.5246 67.5342 42.7779 66.7146 44.5029C65.895 46.228 63.5284 46.0238 62.5211 45.7954C61.5138 45.567 59.8938 45.1398 57.6392 44.5029C55.3846 43.8473 52.2729 42.8733 50.745 42.3488C49.1984 41.8243 46.9811 41.0188 45.8072 40.5318C44.6333 40.0635 42.9563 39.3142 42.0806 38.8834C41.2048 38.4339 39.8632 37.6284 39.0993 37.0852C38.3353 36.5419 37.2919 35.6615 36.7888 35.1371C36.2857 34.6313 35.6894 33.7509 35.4472 33.2264C35.205 32.6832 35 31.8965 35 31.4844C35 31.0723 35.1677 30.2481 35.3727 29.6674C35.5776 29.068 36.118 28.0377 36.5652 27.3634C37.031 26.689 38.1676 25.3778 39.1365 24.46C40.0868 23.5234 41.503 22.3058 42.2669 21.7251C43.0309 21.1444 44.3352 20.2453 45.155 19.7395C45.9749 19.2151 47.5214 18.3534 48.6022 17.8102C49.6829 17.267 51.3226 16.5551 52.2356 16.218C53.1486 15.8808 54.453 15.45 55.1237 15.2814C55.7945 15.0941 57.0057 14.8318 57.8255 14.7007C58.9808 14.5134 61.105 14.4572 67.1421 14.5321Z" fill="white"/>
<path d="M113.168 54.308C109.56 54.308 106.597 53.4573 104.28 51.756C101.963 50.0253 100.716 47.5613 100.54 44.364H109.736C109.824 45.4493 110.147 46.2413 110.704 46.74C111.261 47.2387 111.98 47.488 112.86 47.488C113.652 47.488 114.297 47.2973 114.796 46.916C115.324 46.5053 115.588 45.948 115.588 45.244C115.588 44.3347 115.163 43.6307 114.312 43.132C113.461 42.6333 112.083 42.076 110.176 41.46C108.152 40.7853 106.509 40.14 105.248 39.524C104.016 38.8787 102.931 37.9547 101.992 36.752C101.083 35.52 100.628 33.9213 100.628 31.956C100.628 29.9613 101.127 28.26 102.124 26.852C103.121 25.4147 104.5 24.3293 106.26 23.596C108.02 22.8627 110.015 22.496 112.244 22.496C115.852 22.496 118.727 23.3467 120.868 25.048C123.039 26.72 124.197 29.0813 124.344 32.132H114.972C114.943 31.1933 114.649 30.4893 114.092 30.02C113.564 29.5507 112.875 29.316 112.024 29.316C111.379 29.316 110.851 29.5067 110.44 29.888C110.029 30.2693 109.824 30.812 109.824 31.516C109.824 32.1027 110.044 32.616 110.484 33.056C110.953 33.4667 111.525 33.8333 112.2 34.156C112.875 34.4493 113.872 34.8307 115.192 35.3C117.157 35.9747 118.771 36.6493 120.032 37.324C121.323 37.9693 122.423 38.8933 123.332 40.096C124.271 41.2693 124.74 42.7653 124.74 44.584C124.74 46.432 124.271 48.0893 123.332 49.556C122.423 51.0227 121.088 52.1813 119.328 53.032C117.597 53.8827 115.544 54.308 113.168 54.308ZM133.105 27.028C131.58 27.028 130.348 26.6173 129.409 25.796C128.5 24.9453 128.045 23.8893 128.045 22.628C128.045 21.3373 128.5 20.2667 129.409 19.416C130.348 18.5653 131.58 18.14 133.105 18.14C134.601 18.14 135.804 18.5653 136.713 19.416C137.652 20.2667 138.121 21.3373 138.121 22.628C138.121 23.8893 137.652 24.9453 136.713 25.796C135.804 26.6173 134.601 27.028 133.105 27.028ZM137.373 29.316V54H128.749V29.316H137.373ZM140.876 41.636C140.876 39.084 141.331 36.8547 142.24 34.948C143.179 33.0413 144.44 31.5747 146.024 30.548C147.638 29.5213 149.427 29.008 151.392 29.008C153.094 29.008 154.56 29.3453 155.792 30.02C157.024 30.6947 157.978 31.604 158.652 32.748V29.316H167.276V54H158.652V50.568C157.978 51.712 157.01 52.6213 155.748 53.296C154.516 53.9707 153.064 54.308 151.392 54.308C149.427 54.308 147.638 53.7947 146.024 52.768C144.44 51.7413 143.179 50.2747 142.24 48.368C141.331 46.432 140.876 44.188 140.876 41.636ZM158.652 41.636C158.652 40.052 158.212 38.8053 157.332 37.896C156.482 36.9867 155.426 36.532 154.164 36.532C152.874 36.532 151.803 36.9867 150.952 37.896C150.102 38.776 149.676 40.0227 149.676 41.636C149.676 43.22 150.102 44.4813 150.952 45.42C151.803 46.3293 152.874 46.784 154.164 46.784C155.426 46.784 156.482 46.3293 157.332 45.42C158.212 44.5107 158.652 43.2493 158.652 41.636ZM188.339 29.096C191.184 29.096 193.443 30.0493 195.115 31.956C196.787 33.8333 197.623 36.3853 197.623 39.612V54H188.999V40.756C188.999 39.348 188.632 38.248 187.899 37.456C187.165 36.6347 186.183 36.224 184.951 36.224C183.66 36.224 182.648 36.6347 181.915 37.456C181.181 38.248 180.815 39.348 180.815 40.756V54H172.191V29.316H180.815V32.836C181.577 31.7213 182.604 30.8267 183.895 30.152C185.185 29.448 186.667 29.096 188.339 29.096Z" fill="white"/>
</svg>
