<svg width="74" height="74" viewBox="0 0 74 74" fill="none" xmlns="http://www.w3.org/2000/svg">
<rect x="6" y="14" width="46" height="6" fill="#F11E24"/>
<rect x="32.0015" y="14.0211" width="46" height="6" transform="rotate(90.0023 32.0015 14.0211)" fill="#F11E24"/>
<rect x="32.5" y="20.5" width="26" height="5" fill="#01237D" stroke="#01237D"/>
<rect x="32.5" y="35.5" width="26" height="5" fill="#01237D" stroke="#01237D"/>
<rect x="37.501" y="20.5002" width="39" height="4.99963" transform="rotate(90.0023 37.501 20.5002)" fill="#01237D" stroke="#01237D"/>
<mask id="path-6-inside-1_160_2" fill="white">
<path d="M58.5 41C61.0196 41 63.4359 39.8938 65.2175 37.9246C66.9991 35.9555 68 33.2848 68 30.5C68 27.7152 66.9991 25.0445 65.2175 23.0754C63.4359 21.1062 61.0196 20 58.5 20L58.5 25.9963C59.5807 25.9963 60.6171 26.4708 61.3813 27.3154C62.1455 28.16 62.5748 29.3055 62.5748 30.5C62.5748 31.6945 62.1455 32.84 61.3813 33.6846C60.6171 34.5292 59.5807 35.0037 58.5 35.0037V41Z"/>
</mask>
<path d="M58.5 41C61.0196 41 63.4359 39.8938 65.2175 37.9246C66.9991 35.9555 68 33.2848 68 30.5C68 27.7152 66.9991 25.0445 65.2175 23.0754C63.4359 21.1062 61.0196 20 58.5 20L58.5 25.9963C59.5807 25.9963 60.6171 26.4708 61.3813 27.3154C62.1455 28.16 62.5748 29.3055 62.5748 30.5C62.5748 31.6945 62.1455 32.84 61.3813 33.6846C60.6171 34.5292 59.5807 35.0037 58.5 35.0037V41Z" stroke="#01237D" stroke-width="12" mask="url(#path-6-inside-1_160_2)"/>
</svg>
